<?xml version="1.0" encoding="us-ascii" standalone="no"?><svg xmlns="http://www.w3.org/2000/svg" xmlns:xlink="http://www.w3.org/1999/xlink" contentStyleType="text/css" height="536px" preserveAspectRatio="none" style="width:1456px;height:536px;background:#FFFFFF;" version="1.1" viewBox="0 0 1456 536" width="1456px" zoomAndPan="magnify"><defs/><g><rect fill="#FFFFFF" height="408.0547" style="stroke:#181818;stroke-width:1.0;" width="10" x="290" y="112.4297"/><rect fill="#FFFFFF" height="346.7891" style="stroke:#181818;stroke-width:1.0;" width="10" x="295" y="173.6953"/><rect fill="#FFFFFF" height="288.5234" style="stroke:#181818;stroke-width:1.0;" width="10" x="553" y="231.9609"/><rect fill="#FFFFFF" height="235.2578" style="stroke:#181818;stroke-width:1.0;" width="10" x="830" y="285.2266"/><rect fill="#FFFFFF" height="198.125" style="stroke:#181818;stroke-width:1.0;" width="10" x="835" y="322.3594"/><rect fill="#FFFFFF" height="163.9922" style="stroke:#181818;stroke-width:1.0;" width="10" x="1055" y="356.4922"/><rect fill="#FFFFFF" height="100.7266" style="stroke:#181818;stroke-width:1.0;" width="10" x="1288" y="419.7578"/><rect fill="#FFFFFF" height="21" style="stroke:#181818;stroke-width:1.0;" width="10" x="1293" y="499.4844"/><rect fill="none" height="59.2656" style="stroke:#000000;stroke-width:1.5;" width="223" x="1227" y="453.2188"/><line style="stroke:#181818;stroke-width:0.5;stroke-dasharray:5.0,5.0;" x1="42" x2="42" y1="81.2969" y2="529.4844"/><line style="stroke:#181818;stroke-width:0.5;stroke-dasharray:5.0,5.0;" x1="294.5" x2="294.5" y1="81.2969" y2="529.4844"/><line style="stroke:#181818;stroke-width:0.5;stroke-dasharray:5.0,5.0;" x1="557.5" x2="557.5" y1="81.2969" y2="529.4844"/><line style="stroke:#181818;stroke-width:0.5;stroke-dasharray:5.0,5.0;" x1="835" x2="835" y1="81.2969" y2="529.4844"/><line style="stroke:#181818;stroke-width:0.5;stroke-dasharray:5.0,5.0;" x1="1060" x2="1060" y1="81.2969" y2="529.4844"/><line style="stroke:#181818;stroke-width:0.5;stroke-dasharray:5.0,5.0;" x1="1293" x2="1293" y1="427.4219" y2="529.4844"/><text fill="#000000" font-family="sans-serif" font-size="14" lengthAdjust="spacing" text-decoration="underline" textLength="68" x="5" y="77.9951">Utilisateur</text><ellipse cx="42" cy="13.5" fill="#FFFFFF" rx="8" ry="8" style="stroke:#181818;stroke-width:0.5;"/><path d="M42,21.5 L42,48.5 M29,29.5 L55,29.5 M42,48.5 L29,63.5 M42,48.5 L55,63.5 " fill="none" style="stroke:#181818;stroke-width:0.5;"/><rect fill="#FFFFFF" height="30.2969" rx="2.5" ry="2.5" style="stroke:#181818;stroke-width:0.5;" width="93" x="248.5" y="50"/><text fill="#000000" font-family="sans-serif" font-size="14" lengthAdjust="spacing" text-decoration="underline" textLength="79" x="255.5" y="69.9951">m:MiniSocs</text><rect fill="#FFFFFF" height="30.2969" rx="2.5" ry="2.5" style="stroke:#181818;stroke-width:0.5;" width="85" x="515.5" y="50"/><text fill="#000000" font-family="sans-serif" font-size="14" lengthAdjust="spacing" text-decoration="underline" textLength="71" x="522.5" y="69.9951">rs:Reseau</text><rect fill="#FFFFFF" height="30.2969" rx="2.5" ry="2.5" style="stroke:#181818;stroke-width:0.5;" width="98" x="786" y="50"/><text fill="#000000" font-family="sans-serif" font-size="14" lengthAdjust="spacing" text-decoration="underline" textLength="84" x="793" y="69.9951">me:Membre</text><rect fill="#FFFFFF" height="30.2969" rx="2.5" ry="2.5" style="stroke:#181818;stroke-width:0.5;" width="96" x="1012" y="50"/><text fill="#000000" font-family="sans-serif" font-size="14" lengthAdjust="spacing" text-decoration="underline" textLength="82" x="1019" y="69.9951">u:Utilisateur</text><rect fill="#FFFFFF" height="408.0547" style="stroke:#181818;stroke-width:1.0;" width="10" x="290" y="112.4297"/><rect fill="#FFFFFF" height="346.7891" style="stroke:#181818;stroke-width:1.0;" width="10" x="295" y="173.6953"/><rect fill="#FFFFFF" height="288.5234" style="stroke:#181818;stroke-width:1.0;" width="10" x="553" y="231.9609"/><rect fill="#FFFFFF" height="235.2578" style="stroke:#181818;stroke-width:1.0;" width="10" x="830" y="285.2266"/><rect fill="#FFFFFF" height="198.125" style="stroke:#181818;stroke-width:1.0;" width="10" x="835" y="322.3594"/><rect fill="#FFFFFF" height="163.9922" style="stroke:#181818;stroke-width:1.0;" width="10" x="1055" y="356.4922"/><rect fill="#FFFFFF" height="100.7266" style="stroke:#181818;stroke-width:1.0;" width="10" x="1288" y="419.7578"/><rect fill="#FFFFFF" height="21" style="stroke:#181818;stroke-width:1.0;" width="10" x="1293" y="499.4844"/><polygon fill="#181818" points="278,108.4297,288,112.4297,278,116.4297,282,112.4297" style="stroke:#181818;stroke-width:1.0;"/><line style="stroke:#181818;stroke-width:1.0;" x1="42" x2="284" y1="112.4297" y2="112.4297"/><text fill="#000000" font-family="sans-serif" font-size="13" lengthAdjust="spacing" textLength="229" x="49" y="107.3638">posterMessage(pseudoM, rs, mess)</text><line style="stroke:#181818;stroke-width:1.0;" x1="300" x2="347" y1="160.6953" y2="160.6953"/><line style="stroke:#181818;stroke-width:1.0;" x1="347" x2="347" y1="160.6953" y2="173.6953"/><line style="stroke:#181818;stroke-width:1.0;" x1="306" x2="347" y1="173.6953" y2="173.6953"/><polygon fill="#181818" points="316,169.6953,306,173.6953,316,177.6953,312,173.6953" style="stroke:#181818;stroke-width:1.0;"/><text fill="#000000" font-family="sans-serif" font-size="13" lengthAdjust="spacing" textLength="157" x="312" y="155.6294">e1=existenceReseau(rs)</text><polygon fill="#181818" points="541,227.9609,551,231.9609,541,235.9609,545,231.9609" style="stroke:#181818;stroke-width:1.0;"/><line style="stroke:#181818;stroke-width:1.0;" x1="305" x2="547" y1="231.9609" y2="231.9609"/><text fill="#000000" font-family="sans-serif" font-size="13" lengthAdjust="spacing" textLength="229" x="312" y="226.895">e2=existenceMembre(pseudoM, rs)</text><polygon fill="#181818" points="818,281.2266,828,285.2266,818,289.2266,822,285.2266" style="stroke:#181818;stroke-width:1.0;"/><line style="stroke:#181818;stroke-width:1.0;" x1="563" x2="824" y1="285.2266" y2="285.2266"/><text fill="#000000" font-family="sans-serif" font-size="13" lengthAdjust="spacing" textLength="248" x="570" y="280.1606">pseudoU=pseudoUtilisateur(pseudoM)</text><line style="stroke:#181818;stroke-width:1.0;" x1="840" x2="887" y1="309.3594" y2="309.3594"/><line style="stroke:#181818;stroke-width:1.0;" x1="887" x2="887" y1="309.3594" y2="322.3594"/><line style="stroke:#181818;stroke-width:1.0;" x1="846" x2="887" y1="322.3594" y2="322.3594"/><polygon fill="#181818" points="856,318.3594,846,322.3594,856,326.3594,852,322.3594" style="stroke:#181818;stroke-width:1.0;"/><text fill="#000000" font-family="sans-serif" font-size="13" lengthAdjust="spacing" textLength="201" x="852" y="304.2935">mod=estModerateur(pseudoU)</text><polygon fill="#181818" points="1043,352.4922,1053,356.4922,1043,360.4922,1047,356.4922" style="stroke:#181818;stroke-width:1.0;"/><line style="stroke:#181818;stroke-width:1.0;" x1="845" x2="1049" y1="356.4922" y2="356.4922"/><text fill="#000000" font-family="sans-serif" font-size="13" lengthAdjust="spacing" textLength="158" x="852" y="351.4263">b1=estBloque(pseudoU)</text><polygon fill="#181818" points="1225,405.7578,1235,409.7578,1225,413.7578,1229,409.7578" style="stroke:#181818;stroke-width:1.0;"/><line style="stroke:#181818;stroke-width:1.0;" x1="1065" x2="1231" y1="409.7578" y2="409.7578"/><text fill="#000000" font-family="sans-serif" font-size="13" lengthAdjust="spacing" textLength="148" x="1072" y="404.6919">mess=&#171;create(mess)&#187;</text><rect fill="#FFFFFF" height="46.5938" rx="2.5" ry="2.5" style="stroke:#181818;stroke-width:0.5;" width="112" x="1237" y="388.625"/><text fill="#000000" font-family="sans-serif" font-size="14" lengthAdjust="spacing" textLength="47" x="1269.5" y="408.6201">&#171;new&#187;</text><text fill="#000000" font-family="sans-serif" font-size="14" lengthAdjust="spacing" text-decoration="underline" textLength="98" x="1244" y="424.917">mes:Message</text><path d="M1227,453.2188 L1297,453.2188 L1297,460.3516 L1287,470.3516 L1227,470.3516 L1227,453.2188 " fill="#EEEEEE" style="stroke:#000000;stroke-width:1.5;"/><rect fill="none" height="59.2656" style="stroke:#000000;stroke-width:1.5;" width="223" x="1227" y="453.2188"/><text fill="#000000" font-family="sans-serif" font-size="13" font-weight="bold" lengthAdjust="spacing" textLength="25" x="1242" y="466.2856">opt</text><text fill="#000000" font-family="sans-serif" font-size="11" font-weight="bold" lengthAdjust="spacing" textLength="92" x="1312" y="465.4292">[mod == True]</text><line style="stroke:#181818;stroke-width:1.0;" x1="1298" x2="1345" y1="486.4844" y2="486.4844"/><line style="stroke:#181818;stroke-width:1.0;" x1="1345" x2="1345" y1="486.4844" y2="499.4844"/><line style="stroke:#181818;stroke-width:1.0;" x1="1304" x2="1345" y1="499.4844" y2="499.4844"/><polygon fill="#181818" points="1314,495.4844,1304,499.4844,1314,503.4844,1310,499.4844" style="stroke:#181818;stroke-width:1.0;"/><text fill="#000000" font-family="sans-serif" font-size="13" lengthAdjust="spacing" textLength="128" x="1310" y="481.4185">rendreVisible(mess)</text><!--SRC=[TP9DRjim48NtEiNK6zc8My1P2fQ19a5N5H0qTRifOD3Kn6OZaIg7T7E47gExmkVmJNgI32dwfuwxeaYzz_7D3FCx9LPMj2r2ZK2xxG-FMY8CxnkXtRpwECgpBByr-b6jl1LE6GroBQn3O5ktLgpFixLYywCnRccUCtfIkXFC1CAUTizw9LN7n1iXdrRMU5tVciPO-BfM3YzOtajdx6Lnbj_jjh8HAKsD148wz9O0NTnsn_i8XlLk-ttt6_1PaOidOiCBDE9OBXSfmeKmM2pcJZMAH00k5WCG19xGPYVCe6gBIcdrO2GbKNkki5HyGaBXay3IAmOM5RPBYti4dYjySI4DD-3XC2UnGGaD1ZEHM26DuqxQtJQsXy9OJ_invYR9TtaMYeAtCsZXwWeAw0mvj5KF6NQ4lZRLc4EF8tcKcSx1gsFGF03jcmR-_leJDnj-2HamzOZ6IHbx7_Bs7HbQ1W8494xWJHaHV91yFCZUU7qqzeqw3JQAXiYuXhA4pzPZF8802DTZAYrwvcLQZmtTqqR9neOJMslg4ibLfaPxAf__A_UzUZa9ufl6y5pEXI7ZSX8oVX0DxKC23maP38FfLEFFsUoR3a-2YZI4mwCWEZXyk77mFrdApL_bTDh3Xt5uizc14B9mPMSDwykXrBOzoQAkBNvHf9PD8lNwZ7-y0000]--></g></svg>