<?xml version="1.0" encoding="us-ascii" standalone="no"?><svg xmlns="http://www.w3.org/2000/svg" xmlns:xlink="http://www.w3.org/1999/xlink" contentStyleType="text/css" height="591px" preserveAspectRatio="none" style="width:558px;height:591px;background:#FFFFFF;" version="1.1" viewBox="0 0 558 591" width="558px" zoomAndPan="magnify"><defs/><g><!--class MiniSocs--><g id="elem_MiniSocs"><rect codeLine="15" fill="#FFFFFF" height="50.5938" id="MiniSocs" rx="2.5" ry="2.5" style="stroke:#000000;stroke-width:0.5;" width="97" x="53.5" y="30"/><text fill="#000000" font-family="sans-serif" font-size="14" lengthAdjust="spacing" textLength="61" x="71.5" y="47.9951">MiniSocs</text><line style="stroke:#000000;stroke-width:0.5;" x1="54.5" x2="149.5" y1="56.2969" y2="56.2969"/><text fill="#000000" font-family="sans-serif" font-size="14" lengthAdjust="spacing" textLength="85" x="59.5" y="73.292">-nom: String</text></g><!--class Utilisateur--><g id="elem_Utilisateur"><rect codeLine="18" fill="#FFFFFF" height="115.7813" id="Utilisateur" rx="2.5" ry="2.5" style="stroke:#000000;stroke-width:0.5;" width="190" x="7" y="181"/><text fill="#000000" font-family="sans-serif" font-size="14" lengthAdjust="spacing" textLength="68" x="68" y="198.9951">Utilisateur</text><line style="stroke:#000000;stroke-width:0.5;" x1="8" x2="196" y1="207.2969" y2="207.2969"/><text fill="#000000" font-family="sans-serif" font-size="14" lengthAdjust="spacing" textLength="145" x="13" y="224.292">-pseudonyme: String</text><text fill="#000000" font-family="sans-serif" font-size="14" lengthAdjust="spacing" textLength="85" x="13" y="240.5889">-nom: String</text><text fill="#000000" font-family="sans-serif" font-size="14" lengthAdjust="spacing" textLength="108" x="13" y="256.8857">-pr&#233;nom: String</text><text fill="#000000" font-family="sans-serif" font-size="14" lengthAdjust="spacing" textLength="105" x="13" y="273.1826">-courriel: String</text><text fill="#000000" font-family="sans-serif" font-size="14" lengthAdjust="spacing" textLength="178" x="13" y="289.4795">-etatCompte: &#201;tatCompte</text></g><!--class ?tatCompte--><g id="elem_&#201;tatCompte"><rect codeLine="25" fill="#FFFFFF" height="97.1563" id="&#201;tatCompte" rx="2.5" ry="2.5" style="stroke:#000000;stroke-width:0.5;" width="90" x="330" y="7"/><text fill="#000000" font-family="sans-serif" font-size="12" font-style="italic" lengthAdjust="spacing" textLength="49" x="350.5" y="23.1387">&#171;enum&#187;</text><text fill="#000000" font-family="sans-serif" font-size="14" lengthAdjust="spacing" textLength="82" x="334" y="38.9639">&#201;tatCompte</text><line style="stroke:#000000;stroke-width:0.5;" x1="331" x2="419" y1="47.2656" y2="47.2656"/><text fill="#000000" font-family="sans-serif" font-size="14" lengthAdjust="spacing" textLength="39" x="336" y="64.2607">ACTIF</text><text fill="#000000" font-family="sans-serif" font-size="14" lengthAdjust="spacing" textLength="78" x="336" y="80.5576">D&#201;SACTIV&#201;</text><text fill="#000000" font-family="sans-serif" font-size="14" lengthAdjust="spacing" textLength="58" x="336" y="96.8545">BLOQU&#201;</text></g><!--class Reseau--><g id="elem_Reseau"><rect codeLine="30" fill="#FFFFFF" height="66.8906" id="Reseau" rx="2.5" ry="2.5" style="stroke:#000000;stroke-width:0.5;" width="96" x="455" y="22"/><text fill="#000000" font-family="sans-serif" font-size="14" lengthAdjust="spacing" textLength="53" x="476.5" y="39.9951">Reseau</text><line style="stroke:#000000;stroke-width:0.5;" x1="456" x2="550" y1="48.2969" y2="48.2969"/><text fill="#000000" font-family="sans-serif" font-size="14" lengthAdjust="spacing" textLength="80" x="461" y="65.292">nom: String</text><text fill="#000000" font-family="sans-serif" font-size="14" lengthAdjust="spacing" textLength="84" x="461" y="81.5889">ouvert: Bool</text></g><!--class Membre--><g id="elem_Membre"><rect codeLine="34" fill="#FFFFFF" height="66.8906" id="Membre" rx="2.5" ry="2.5" style="stroke:#000000;stroke-width:0.5;" width="134" x="114" y="374"/><text fill="#000000" font-family="sans-serif" font-size="14" lengthAdjust="spacing" textLength="57" x="152.5" y="391.9951">Membre</text><line style="stroke:#000000;stroke-width:0.5;" x1="115" x2="247" y1="400.2969" y2="400.2969"/><text fill="#000000" font-family="sans-serif" font-size="14" lengthAdjust="spacing" textLength="121" x="120" y="417.292">moderateur: Bool</text><text fill="#000000" font-family="sans-serif" font-size="14" lengthAdjust="spacing" textLength="122" x="120" y="433.5889">pseudo_rs: String</text></g><!--class Message--><g id="elem_Message"><rect codeLine="38" fill="#FFFFFF" height="66.8906" id="Message" rx="2.5" ry="2.5" style="stroke:#000000;stroke-width:0.5;" width="119" x="121.5" y="518"/><text fill="#000000" font-family="sans-serif" font-size="14" lengthAdjust="spacing" textLength="63" x="149.5" y="535.9951">Message</text><line style="stroke:#000000;stroke-width:0.5;" x1="122.5" x2="239.5" y1="544.2969" y2="544.2969"/><text fill="#000000" font-family="sans-serif" font-size="14" lengthAdjust="spacing" textLength="107" x="127.5" y="561.292">contenu: String</text><text fill="#000000" font-family="sans-serif" font-size="14" lengthAdjust="spacing" textLength="82" x="127.5" y="577.5889">visible: Bool</text></g><!--class Minisocs--><g id="elem_Minisocs"><rect fill="#FFFFFF" height="34.2969" id="Minisocs" rx="2.5" ry="2.5" style="stroke:#000000;stroke-width:0.5;" width="66" x="229" y="38.5"/><text fill="#000000" font-family="sans-serif" font-size="14" lengthAdjust="spacing" textLength="60" x="232" y="56.4951">Minisocs</text><line style="stroke:#000000;stroke-width:0.5;" x1="230" x2="294" y1="64.7969" y2="64.7969"/></g><!--class R?seau--><g id="elem_R&#233;seau"><rect fill="#FFFFFF" height="34.2969" id="R&#233;seau" rx="2.5" ry="2.5" style="stroke:#000000;stroke-width:0.5;" width="59" x="232.5" y="222"/><text fill="#000000" font-family="sans-serif" font-size="14" lengthAdjust="spacing" textLength="53" x="235.5" y="239.9951">R&#233;seau</text><line style="stroke:#000000;stroke-width:0.5;" x1="233.5" x2="290.5" y1="248.2969" y2="248.2969"/></g><!--link MiniSocs to Utilisateur--><g id="link_MiniSocs_Utilisateur"><path codeLine="44" d="M102,93.36 C102,118.79 102,141.21 102,174.62 " fill="none" id="MiniSocs-Utilisateur" style="stroke:#000000;stroke-width:1.0;"/><polygon fill="#000000" points="102,81.36,98,87.36,102,93.36,106,87.36,102,81.36" style="stroke:#000000;stroke-width:1.0;"/><polygon fill="#000000" points="102,180.62,106,171.62,102,175.62,98,171.62,102,180.62" style="stroke:#000000;stroke-width:1.0;"/><text fill="#000000" font-family="sans-serif" font-size="13" lengthAdjust="spacing" textLength="59" x="103" y="147.0669">poss&#232;der</text><text fill="#000000" font-family="sans-serif" font-size="13" lengthAdjust="spacing" textLength="8" x="93.125" y="100.7834">1</text><text fill="#000000" font-family="sans-serif" font-size="13" lengthAdjust="spacing" textLength="23" x="77.6703" y="170.0898">0..*</text></g><!--link Minisocs to R?seau--><g id="link_Minisocs_R&#233;seau"><path codeLine="45" d="M262,84.61 C262,119.05 262,181.52 262,215.93 " fill="none" id="Minisocs-R&#233;seau" style="stroke:#000000;stroke-width:1.0;"/><polygon fill="#000000" points="262,72.61,258,78.61,262,84.61,266,78.61,262,72.61" style="stroke:#000000;stroke-width:1.0;"/><polygon fill="#000000" points="262,221.93,266,212.93,262,216.93,258,212.93,262,221.93" style="stroke:#000000;stroke-width:1.0;"/><text fill="#000000" font-family="sans-serif" font-size="13" lengthAdjust="spacing" textLength="59" x="263" y="147.0669">poss&#232;der</text><text fill="#000000" font-family="sans-serif" font-size="13" lengthAdjust="spacing" textLength="23" x="235.1906" y="92.8018">0..*</text><text fill="#000000" font-family="sans-serif" font-size="13" lengthAdjust="spacing" textLength="8" x="252.675" y="210.8309">1</text></g><!--link R?seau to Membre--><g id="link_R&#233;seau_Membre"><path codeLine="47" d="M254.27,256.24 C244.49,276.73 227.12,313.04 212,344 C207.27,353.69 202.08,364.19 197.33,373.78 " fill="none" id="R&#233;seau-Membre" style="stroke:#000000;stroke-width:1.0;"/><text fill="#000000" font-family="sans-serif" font-size="13" lengthAdjust="spacing" textLength="59" x="222" y="340.0669">poss&#232;der</text><text fill="#000000" font-family="sans-serif" font-size="13" lengthAdjust="spacing" textLength="23" x="224.9001" y="276.4748">1..*</text><text fill="#000000" font-family="sans-serif" font-size="13" lengthAdjust="spacing" textLength="23" x="175.2507" y="363.0124">1..*</text></g><!--link Membre to Message--><g id="link_Membre_Message"><path codeLine="49" d="M181,441.08 C181,464 181,494.58 181,517.58 " fill="none" id="Membre-Message" style="stroke:#000000;stroke-width:1.0;"/><text fill="#000000" font-family="sans-serif" font-size="13" lengthAdjust="spacing" textLength="41" x="182" y="484.0669">poster</text><text fill="#000000" font-family="sans-serif" font-size="13" lengthAdjust="spacing" textLength="8" x="172.2375" y="461.0009">1</text><text fill="#000000" font-family="sans-serif" font-size="13" lengthAdjust="spacing" textLength="23" x="155.8797" y="507.0324">0..*</text></g><!--link Utilisateur to Membre--><g id="link_Utilisateur_Membre"><path codeLine="51" d="M116.7061,308.7165 C121.0361,324.3865 123.57,329.49 131,344 C136.32,354.39 139.7912,359.9973 147.0812,369.1473 " fill="none" id="Utilisateur-Membre" style="stroke:#000000;stroke-width:1.0;"/><polygon fill="#000000" points="113.51,297.15,111.2525,303.9986,116.7061,308.7165,118.9636,301.8679,113.51,297.15" style="stroke:#000000;stroke-width:1.0;"/><polygon fill="#000000" points="150.82,373.84,148.3403,364.3084,147.7043,369.9294,142.0834,369.2935,150.82,373.84" style="stroke:#000000;stroke-width:1.0;"/><text fill="#000000" font-family="sans-serif" font-size="13" lengthAdjust="spacing" textLength="75" x="132" y="340.0669">repr&#233;senter</text><text fill="#000000" font-family="sans-serif" font-size="13" lengthAdjust="spacing" textLength="8" x="106.3783" y="316.828">1</text><text fill="#000000" font-family="sans-serif" font-size="13" lengthAdjust="spacing" textLength="23" x="119.6143" y="362.8274">0..*</text></g><!--SRC=[PPDDRjim48NtFCL06xL1P3XR8p2WE2WG84RRk6wN1KrF9I8IgV8dHLhq0Bv9VGvTB4DI5Ynt9UhXUpDlXb9-BtbbUDiYx154mwr52-y-DLovxVhnVSvOljBgXwoyuKvg1QBcnY6GgQlbJuyvgoLPiUtSAxJeQhstIHBIY0QPVPQguzGZbOS_3E2EY-VAQA_sAzre0zzgwP3qqXZzAqbt3J41rMQFPggLpXcvymuVX5OR-HjXplw6f2d_DVH7vTl-c2BJEpenordglvPARhH8GGfGkbt0XkgfYceaPEja8ortwCr0THRzNglN5aVuqXmnGvqlDA6zCHARYOYEkvMcdL6z_Z2-K0AavESItDu6QRcCIShLbuSFzBpl3vjm_jeVmeuUFtxUqkcK_majSXyDqpJQlw1n2rggRaPwZUtEOAHRJRkESmyC39D_D_Q_BQtHMbub8zs3evXdhLwabRi6nruiBwtLGawlPBoCx2Q3gw9OGZQVpQwooHKieDFMzlye6qI7ZOu49XEvd_fZdFgCPkmaPZSHBehJAGqzOOSzX5g1cmzS73A2Bb3dmIv3dueQ31-2HHKTUUbXXrPBTGsSVWnBjSZSOAWfmpeKjiJcx0q0]--></g></svg>