<?xml version="1.0" encoding="us-ascii" standalone="no"?><svg xmlns="http://www.w3.org/2000/svg" xmlns:xlink="http://www.w3.org/1999/xlink" contentStyleType="text/css" height="960px" preserveAspectRatio="none" style="width:552px;height:960px;background:#FFFFFF;" version="1.1" viewBox="0 0 552 960" width="552px" zoomAndPan="magnify"><defs/><g><!--cluster MiniSocs--><g id="cluster_MiniSocs"><rect fill="none" height="947" rx="2.5" ry="2.5" style="stroke:#181818;stroke-width:1.0;" width="268" x="278" y="7"/><text fill="#000000" font-family="sans-serif" font-size="14" font-weight="bold" lengthAdjust="spacing" textLength="69" x="377.5" y="21.9951">MiniSocs</text></g><g id="elem_ajouter un utilisateur"><ellipse cx="412.1728" cy="62.8346" fill="#FFFFFF" rx="89.6728" ry="20.3346" style="stroke:#000000;stroke-width:0.5;"/><text fill="#000000" font-family="sans-serif" font-size="14" lengthAdjust="spacing" textLength="141" x="341.6728" y="65.6812">ajouter un utilisateur</text></g><g id="elem_lister les utilisateur"><ellipse cx="411.995" cy="138.199" fill="#FFFFFF" rx="83.995" ry="19.199" style="stroke:#000000;stroke-width:0.5;"/><text fill="#000000" font-family="sans-serif" font-size="14" lengthAdjust="spacing" textLength="128" x="347.7335" y="141.1356">lister les utilisateur</text></g><g id="elem_bloquer un compte utilisateur"><ellipse cx="411.9616" cy="217.9923" fill="#FFFFFF" rx="117.9616" ry="25.9923" style="stroke:#000000;stroke-width:0.5;"/><text fill="#000000" font-family="sans-serif" font-size="14" lengthAdjust="spacing" textLength="203" x="310.4616" y="220.839">bloquer un compte utilisateur</text></g><g id="elem_retirer un compte utilisateur"><ellipse cx="411.8717" cy="303.8743" fill="#FFFFFF" rx="112.3717" ry="24.8743" style="stroke:#000000;stroke-width:0.5;"/><text fill="#000000" font-family="sans-serif" font-size="14" lengthAdjust="spacing" textLength="191" x="316.3717" y="306.721">retirer un compte utilisateur</text></g><g id="elem_d&#233;sactiver son compte"><ellipse cx="411.7599" cy="695.852" fill="#FFFFFF" rx="97.2599" ry="21.852" style="stroke:#000000;stroke-width:0.5;"/><text fill="#000000" font-family="sans-serif" font-size="14" lengthAdjust="spacing" textLength="158" x="332.7599" y="698.6987">d&#233;sactiver son compte</text></g><g id="elem_cr&#233;er un r&#233;seau social"><ellipse cx="412.0118" cy="774.9024" fill="#FFFFFF" rx="95.0118" ry="21.4024" style="stroke:#000000;stroke-width:0.5;"/><text fill="#000000" font-family="sans-serif" font-size="14" lengthAdjust="spacing" textLength="153" x="335.5118" y="777.749">cr&#233;er un r&#233;seau social</text></g><g id="elem_configurer profil"><ellipse cx="411.8844" cy="848.9769" fill="#FFFFFF" rx="75.3844" ry="17.4769" style="stroke:#000000;stroke-width:0.5;"/><text fill="#000000" font-family="sans-serif" font-size="14" lengthAdjust="spacing" textLength="107" x="355.3844" y="852.7244">configurer profil</text></g><g id="elem_Poster message"><ellipse cx="411.7532" cy="919.9506" fill="#FFFFFF" rx="77.7532" ry="17.9506" style="stroke:#000000;stroke-width:0.5;"/><text fill="#000000" font-family="sans-serif" font-size="14" lengthAdjust="spacing" textLength="113" x="352.6994" y="923.5809">Poster message</text></g><g id="elem_ajouter membre"><ellipse cx="412.0612" cy="382.2122" fill="#FFFFFF" rx="76.5612" ry="17.7122" style="stroke:#000000;stroke-width:0.5;"/><text fill="#000000" font-family="sans-serif" font-size="14" lengthAdjust="spacing" textLength="110" x="354.0612" y="385.9598">ajouter membre</text></g><g id="elem_promouvoir un mod&#233;rateur"><ellipse cx="412.0935" cy="458.8187" fill="#FFFFFF" rx="109.5935" ry="24.3187" style="stroke:#000000;stroke-width:0.5;"/><text fill="#000000" font-family="sans-serif" font-size="14" lengthAdjust="spacing" textLength="185" x="319.5935" y="461.6654">promouvoir un mod&#233;rateur</text></g><g id="elem_Approuver messages post&#233;s"><ellipse cx="412.0937" cy="544.1187" fill="#FFFFFF" rx="116.0937" ry="25.6187" style="stroke:#000000;stroke-width:0.5;"/><text fill="#000000" font-family="sans-serif" font-size="14" lengthAdjust="spacing" textLength="199" x="312.5937" y="546.9654">Approuver messages post&#233;s</text></g><g id="elem_Fermer r&#233;seau"><ellipse cx="412.0678" cy="622.0136" fill="#FFFFFF" rx="73.0678" ry="17.0136" style="stroke:#000000;stroke-width:0.5;"/><text fill="#000000" font-family="sans-serif" font-size="14" lengthAdjust="spacing" textLength="101" x="358.5678" y="625.7611">Fermer r&#233;seau</text></g><!--entity Administrateur--><g id="elem_Administrateur"><ellipse cx="184" cy="188.5" fill="#F1F1F1" rx="8" ry="8" style="stroke:#181818;stroke-width:0.5;"/><path d="M184,196.5 L184,223.5 M171,204.5 L197,204.5 M184,223.5 L171,238.5 M184,223.5 L197,238.5 " fill="none" style="stroke:#181818;stroke-width:0.5;"/><text fill="#000000" font-family="sans-serif" font-size="14" lengthAdjust="spacing" textLength="100" x="134" y="252.9951">Administrateur</text></g><!--entity Utilisateur--><g id="elem_Utilisateur"><ellipse cx="40" cy="704.5" fill="#F1F1F1" rx="8" ry="8" style="stroke:#181818;stroke-width:0.5;"/><path d="M40,712.5 L40,739.5 M27,720.5 L53,720.5 M40,739.5 L27,754.5 M40,739.5 L53,754.5 " fill="none" style="stroke:#181818;stroke-width:0.5;"/><text fill="#000000" font-family="sans-serif" font-size="14" lengthAdjust="spacing" textLength="68" x="6" y="768.9951">Utilisateur</text></g><!--entity Mod?rateur--><g id="elem_Mod&#233;rateur"><ellipse cx="184" cy="514.5" fill="#F1F1F1" rx="8" ry="8" style="stroke:#181818;stroke-width:0.5;"/><path d="M184,522.5 L184,549.5 M171,530.5 L197,530.5 M184,549.5 L171,564.5 M184,549.5 L197,564.5 " fill="none" style="stroke:#181818;stroke-width:0.5;"/><text fill="#000000" font-family="sans-serif" font-size="14" lengthAdjust="spacing" textLength="80" x="144" y="578.9951">Mod&#233;rateur</text></g><!--reverse link Utilisateur to Administrateur--><g id="link_Utilisateur_Administrateur"><path d="M56.3356,678.2851 C82.6556,582.6351 146.18,351.8 172.47,256.26 " fill="none" id="Utilisateur-backto-Administrateur" style="stroke:#000000;stroke-width:1.0;"/><polygon fill="none" points="51.56,695.64,62.1205,679.8769,50.5506,676.6932,51.56,695.64" style="stroke:#000000;stroke-width:1.0;"/></g><!--reverse link Utilisateur to Mod?rateur--><g id="link_Utilisateur_Mod&#233;rateur"><path d="M80.5142,681.1307 C105.2242,648.0607 129.92,615.03 154.55,582.07 " fill="none" id="Utilisateur-backto-Mod&#233;rateur" style="stroke:#000000;stroke-width:1.0;"/><polygon fill="none" points="69.74,695.55,85.3206,684.7221,75.7077,677.5393,69.74,695.55" style="stroke:#000000;stroke-width:1.0;"/></g><!--link Administrateur to ajouter un utilisateur--><g id="link_Administrateur_ajouter un utilisateur"><path d="M203.71,179.98 C218.34,154.05 241.05,120.93 270,101 C289.11,87.85 312.57,79.24 334.83,73.61 " fill="none" id="Administrateur-ajouter un utilisateur" style="stroke:#000000;stroke-width:1.0;"/></g><!--link Administrateur to lister les utilisateur--><g id="link_Administrateur_lister les utilisateur"><path d="M234.02,190.23 C245.59,184.35 258.04,178.55 270,174 C295.26,164.38 324.04,156.51 348.98,150.61 " fill="none" id="Administrateur-lister les utilisateur" style="stroke:#000000;stroke-width:1.0;"/></g><!--link Administrateur to bloquer un compte utilisateur--><g id="link_Administrateur_bloquer un compte utilisateur"><path d="M234.04,218 C251.82,218 272.76,218 293.89,218 " fill="none" id="Administrateur-bloquer un compte utilisateur" style="stroke:#000000;stroke-width:1.0;"/></g><!--link Administrateur to retirer un compte utilisateur--><g id="link_Administrateur_retirer un compte utilisateur"><path d="M234.23,244.7 C245.79,250.47 258.18,256.25 270,261 C292.2,269.92 317,278.07 339.53,284.81 " fill="none" id="Administrateur-retirer un compte utilisateur" style="stroke:#000000;stroke-width:1.0;"/></g><!--link Utilisateur to d?sactiver son compte--><g id="link_Utilisateur_d&#233;sactiver son compte"><path d="M74.16,730.59 C129.68,724.89 243.2,713.23 323.06,705.03 " fill="none" id="Utilisateur-d&#233;sactiver son compte" style="stroke:#000000;stroke-width:1.0;"/></g><!--link Utilisateur to cr?er un r?seau social--><g id="link_Utilisateur_cr&#233;er un r&#233;seau social"><path d="M74.16,737.67 C130.48,743.92 246.48,756.77 326.48,765.63 " fill="none" id="Utilisateur-cr&#233;er un r&#233;seau social" style="stroke:#000000;stroke-width:1.0;"/></g><!--link Utilisateur to configurer profil--><g id="link_Utilisateur_configurer profil"><path d="M74.06,746.64 C118.29,763.29 199.37,792.95 270,814 C298.52,822.5 330.71,830.6 357.12,836.87 " fill="none" id="Utilisateur-configurer profil" style="stroke:#000000;stroke-width:1.0;"/></g><!--link Utilisateur to Poster message--><g id="link_Utilisateur_Poster message"><path d="M74.18,764.22 C91.39,779.17 113.13,796.96 134,811 C190.92,849.29 206.07,859.11 270,884 C296.37,894.27 326.65,902.44 352.38,908.39 " fill="none" id="Utilisateur-Poster message" style="stroke:#000000;stroke-width:1.0;"/></g><!--link Mod?rateur to ajouter membre--><g id="link_Mod&#233;rateur_ajouter membre"><path d="M201.18,505.84 C215.27,477.17 238.41,439.18 270,417 C290.85,402.36 317.19,393.83 341.45,388.86 " fill="none" id="Mod&#233;rateur-ajouter membre" style="stroke:#000000;stroke-width:1.0;"/></g><!--link Mod?rateur to promouvoir un mod?rateur--><g id="link_Mod&#233;rateur_promouvoir un mod&#233;rateur"><path d="M224.11,522.37 C238.3,515.02 254.64,507.12 270,501 C292.31,492.12 317.24,484.1 339.87,477.5 " fill="none" id="Mod&#233;rateur-promouvoir un mod&#233;rateur" style="stroke:#000000;stroke-width:1.0;"/></g><!--link Mod?rateur to Approuver messages post?s--><g id="link_Mod&#233;rateur_Approuver messages post&#233;s"><path d="M224.11,544 C244.2,544 269.83,544 295.63,544 " fill="none" id="Mod&#233;rateur-Approuver messages post&#233;s" style="stroke:#000000;stroke-width:1.0;"/></g><!--link Mod?rateur to Fermer r?seau--><g id="link_Mod&#233;rateur_Fermer r&#233;seau"><path d="M224.38,566.25 C238.46,573.57 254.65,581.3 270,587 C297.42,597.19 328.95,605.33 355.22,611.19 " fill="none" id="Mod&#233;rateur-Fermer r&#233;seau" style="stroke:#000000;stroke-width:1.0;"/></g><!--SRC=[XLFBRXin3BphAuXSDZxa1mmZW9sWxQ460XH1pen4hzL8ufQI70Hf_wV-3lzOkVQcTXwBx6b1pd26mztcscCh62E18x2OmJMr-E0p5iy9pcy2fdAx_3vfZ6ckEAryM-NGiskKGg3qRkr_LMfCVl2fGnq7DPCE8tWs2xGFhN1Dxee32zojVI6pO74aXyeYACJCHVZnLS4MbZVisGo-rOW9BY_XAmTd_XWJQ5MWC8XlrmMS5xAzFRLxlTlQW8DRHndG5ggIOTeOxAV3t4MVV2wAqSPGl1tsFrQMx7RR0NFIXTdlYuktCzxrJyaVU7gVkSEK8H3afrnsVwFcsg-4gTNQsLArVh3DPnhjzBNq55Jj77zoBIHG4zIZbSd7O6ttsA0-FWVV1zOhxoTRZfsU_dEEKD63Z7DEqfg2FZr7uygQkzyeB_CBSGHiPRSzpDUNJ5YLOZs6CVZm1Ikb4rxvCTmDxuE9b3EslVR95V-3NgAE5Ezb3AGoaUk6_TvaF296yFDE6NLp5C_GgHbTReJmXIGgUbX_Oep-5Fy0]--></g></svg>