<?xml version="1.0" encoding="us-ascii" standalone="no"?><svg xmlns="http://www.w3.org/2000/svg" xmlns:xlink="http://www.w3.org/1999/xlink" contentStyleType="text/css" height="592px" preserveAspectRatio="none" style="width:1226px;height:592px;background:#FFFFFF;" version="1.1" viewBox="0 0 1226 592" width="1226px" zoomAndPan="magnify"><defs/><g><rect fill="#FFFFFF" height="464.1875" style="stroke:#181818;stroke-width:1.0;" width="10" x="322" y="112.4297"/><rect fill="#FFFFFF" height="402.9219" style="stroke:#181818;stroke-width:1.0;" width="10" x="327" y="173.6953"/><rect fill="#FFFFFF" height="344.6563" style="stroke:#181818;stroke-width:1.0;" width="10" x="561" y="231.9609"/><rect fill="#FFFFFF" height="307.5234" style="stroke:#181818;stroke-width:1.0;" width="10" x="566" y="269.0938"/><rect fill="#FFFFFF" height="249.2578" style="stroke:#181818;stroke-width:1.0;" width="10" x="811" y="327.3594"/><rect fill="#FFFFFF" height="212.125" style="stroke:#181818;stroke-width:1.0;" width="10" x="816" y="364.4922"/><rect fill="#FFFFFF" height="14" style="stroke:#181818;stroke-width:1.0;" width="10" x="979" y="398.625"/><rect fill="#FFFFFF" height="100.7266" style="stroke:#181818;stroke-width:1.0;" width="10" x="1093" y="475.8906"/><rect fill="#FFFFFF" height="21" style="stroke:#181818;stroke-width:1.0;" width="10" x="1098" y="555.6172"/><rect fill="none" height="59.2656" style="stroke:#000000;stroke-width:1.5;" width="188" x="1032" y="509.3516"/><line style="stroke:#181818;stroke-width:0.5;stroke-dasharray:5.0,5.0;" x1="42" x2="42" y1="81.2969" y2="585.6172"/><line style="stroke:#181818;stroke-width:0.5;stroke-dasharray:5.0,5.0;" x1="326.5" x2="326.5" y1="81.2969" y2="585.6172"/><line style="stroke:#181818;stroke-width:0.5;stroke-dasharray:5.0,5.0;" x1="565.5" x2="565.5" y1="81.2969" y2="585.6172"/><line style="stroke:#181818;stroke-width:0.5;stroke-dasharray:5.0,5.0;" x1="816" x2="816" y1="81.2969" y2="585.6172"/><line style="stroke:#181818;stroke-width:0.5;stroke-dasharray:5.0,5.0;" x1="984" x2="984" y1="81.2969" y2="585.6172"/><line style="stroke:#181818;stroke-width:0.5;stroke-dasharray:5.0,5.0;" x1="1098" x2="1098" y1="483.5547" y2="585.6172"/><text fill="#000000" font-family="sans-serif" font-size="14" lengthAdjust="spacing" text-decoration="underline" textLength="68" x="5" y="77.9951">Utilisateur</text><ellipse cx="42" cy="13.5" fill="#FFFFFF" rx="8" ry="8" style="stroke:#181818;stroke-width:0.5;"/><path d="M42,21.5 L42,48.5 M29,29.5 L55,29.5 M42,48.5 L29,63.5 M42,48.5 L55,63.5 " fill="none" style="stroke:#181818;stroke-width:0.5;"/><rect fill="#FFFFFF" height="30.2969" rx="2.5" ry="2.5" style="stroke:#181818;stroke-width:0.5;" width="93" x="280.5" y="50"/><text fill="#000000" font-family="sans-serif" font-size="14" lengthAdjust="spacing" text-decoration="underline" textLength="79" x="287.5" y="69.9951">m:MiniSocs</text><rect fill="#FFFFFF" height="30.2969" rx="2.5" ry="2.5" style="stroke:#181818;stroke-width:0.5;" width="85" x="523.5" y="50"/><text fill="#000000" font-family="sans-serif" font-size="14" lengthAdjust="spacing" text-decoration="underline" textLength="71" x="530.5" y="69.9951">rs:Reseau</text><rect fill="#FFFFFF" height="30.2969" rx="2.5" ry="2.5" style="stroke:#181818;stroke-width:0.5;" width="98" x="767" y="50"/><text fill="#000000" font-family="sans-serif" font-size="14" lengthAdjust="spacing" text-decoration="underline" textLength="84" x="774" y="69.9951">me:Membre</text><rect fill="#FFFFFF" height="30.2969" rx="2.5" ry="2.5" style="stroke:#181818;stroke-width:0.5;" width="96" x="936" y="50"/><text fill="#000000" font-family="sans-serif" font-size="14" lengthAdjust="spacing" text-decoration="underline" textLength="82" x="943" y="69.9951">u:Utilisateur</text><rect fill="#FFFFFF" height="464.1875" style="stroke:#181818;stroke-width:1.0;" width="10" x="322" y="112.4297"/><rect fill="#FFFFFF" height="402.9219" style="stroke:#181818;stroke-width:1.0;" width="10" x="327" y="173.6953"/><rect fill="#FFFFFF" height="344.6563" style="stroke:#181818;stroke-width:1.0;" width="10" x="561" y="231.9609"/><rect fill="#FFFFFF" height="307.5234" style="stroke:#181818;stroke-width:1.0;" width="10" x="566" y="269.0938"/><rect fill="#FFFFFF" height="249.2578" style="stroke:#181818;stroke-width:1.0;" width="10" x="811" y="327.3594"/><rect fill="#FFFFFF" height="212.125" style="stroke:#181818;stroke-width:1.0;" width="10" x="816" y="364.4922"/><rect fill="#FFFFFF" height="14" style="stroke:#181818;stroke-width:1.0;" width="10" x="979" y="398.625"/><rect fill="#FFFFFF" height="100.7266" style="stroke:#181818;stroke-width:1.0;" width="10" x="1093" y="475.8906"/><rect fill="#FFFFFF" height="21" style="stroke:#181818;stroke-width:1.0;" width="10" x="1098" y="555.6172"/><polygon fill="#181818" points="310,108.4297,320,112.4297,310,116.4297,314,112.4297" style="stroke:#181818;stroke-width:1.0;"/><line style="stroke:#181818;stroke-width:1.0;" x1="42" x2="316" y1="112.4297" y2="112.4297"/><text fill="#000000" font-family="sans-serif" font-size="13" lengthAdjust="spacing" textLength="261" x="49" y="107.3638">posterMessage(pseudoM, nomRs, mess)</text><line style="stroke:#181818;stroke-width:1.0;" x1="332" x2="379" y1="160.6953" y2="160.6953"/><line style="stroke:#181818;stroke-width:1.0;" x1="379" x2="379" y1="160.6953" y2="173.6953"/><line style="stroke:#181818;stroke-width:1.0;" x1="338" x2="379" y1="173.6953" y2="173.6953"/><polygon fill="#181818" points="348,169.6953,338,173.6953,348,177.6953,344,173.6953" style="stroke:#181818;stroke-width:1.0;"/><text fill="#000000" font-family="sans-serif" font-size="13" lengthAdjust="spacing" textLength="156" x="344" y="155.6294">rs=rechercheReseau(rs)</text><polygon fill="#181818" points="549,227.9609,559,231.9609,549,235.9609,553,231.9609" style="stroke:#181818;stroke-width:1.0;"/><line style="stroke:#181818;stroke-width:1.0;" x1="337" x2="555" y1="231.9609" y2="231.9609"/><text fill="#000000" font-family="sans-serif" font-size="13" lengthAdjust="spacing" textLength="205" x="344" y="226.895">posterMessage(pseudoM,mess)</text><line style="stroke:#181818;stroke-width:1.0;" x1="571" x2="618" y1="256.0938" y2="256.0938"/><line style="stroke:#181818;stroke-width:1.0;" x1="618" x2="618" y1="256.0938" y2="269.0938"/><line style="stroke:#181818;stroke-width:1.0;" x1="577" x2="618" y1="269.0938" y2="269.0938"/><polygon fill="#181818" points="587,265.0938,577,269.0938,587,273.0938,583,269.0938" style="stroke:#181818;stroke-width:1.0;"/><text fill="#000000" font-family="sans-serif" font-size="13" lengthAdjust="spacing" textLength="217" x="583" y="251.0278">me=rechercheMembre(pseudoM)</text><polygon fill="#181818" points="799,323.3594,809,327.3594,799,331.3594,803,327.3594" style="stroke:#181818;stroke-width:1.0;"/><line style="stroke:#181818;stroke-width:1.0;" x1="576" x2="805" y1="327.3594" y2="327.3594"/><text fill="#000000" font-family="sans-serif" font-size="13" lengthAdjust="spacing" textLength="216" x="583" y="322.2935">u=rechercheUtilisateur(pseudoM)</text><line style="stroke:#181818;stroke-width:1.0;" x1="821" x2="868" y1="351.4922" y2="351.4922"/><line style="stroke:#181818;stroke-width:1.0;" x1="868" x2="868" y1="351.4922" y2="364.4922"/><line style="stroke:#181818;stroke-width:1.0;" x1="827" x2="868" y1="364.4922" y2="364.4922"/><polygon fill="#181818" points="837,360.4922,827,364.4922,837,368.4922,833,364.4922" style="stroke:#181818;stroke-width:1.0;"/><text fill="#000000" font-family="sans-serif" font-size="13" lengthAdjust="spacing" textLength="144" x="833" y="346.4263">mod=estModerateur()</text><polygon fill="#181818" points="967,394.625,977,398.625,967,402.625,971,398.625" style="stroke:#181818;stroke-width:1.0;"/><line style="stroke:#181818;stroke-width:1.0;" x1="826" x2="973" y1="398.625" y2="398.625"/><text fill="#000000" font-family="sans-serif" font-size="13" lengthAdjust="spacing" textLength="93" x="833" y="393.5591">b=estBloque()</text><polygon fill="#181818" points="837,408.625,827,412.625,837,416.625,833,412.625" style="stroke:#181818;stroke-width:1.0;"/><line style="stroke:#181818;stroke-width:1.0;stroke-dasharray:2.0,2.0;" x1="831" x2="983" y1="412.625" y2="412.625"/><polygon fill="#181818" points="1030,461.8906,1040,465.8906,1030,469.8906,1034,465.8906" style="stroke:#181818;stroke-width:1.0;"/><line style="stroke:#181818;stroke-width:1.0;" x1="826" x2="1036" y1="465.8906" y2="465.8906"/><text fill="#000000" font-family="sans-serif" font-size="13" lengthAdjust="spacing" textLength="148" x="833" y="460.8247">mess=&#171;create(mess)&#187;</text><rect fill="#FFFFFF" height="46.5938" rx="2.5" ry="2.5" style="stroke:#181818;stroke-width:0.5;" width="112" x="1042" y="444.7578"/><text fill="#000000" font-family="sans-serif" font-size="14" lengthAdjust="spacing" textLength="47" x="1074.5" y="464.7529">&#171;new&#187;</text><text fill="#000000" font-family="sans-serif" font-size="14" lengthAdjust="spacing" text-decoration="underline" textLength="98" x="1049" y="481.0498">mes:Message</text><path d="M1032,509.3516 L1102,509.3516 L1102,516.4844 L1092,526.4844 L1032,526.4844 L1032,509.3516 " fill="#EEEEEE" style="stroke:#000000;stroke-width:1.5;"/><rect fill="none" height="59.2656" style="stroke:#000000;stroke-width:1.5;" width="188" x="1032" y="509.3516"/><text fill="#000000" font-family="sans-serif" font-size="13" font-weight="bold" lengthAdjust="spacing" textLength="25" x="1047" y="522.4185">opt</text><text fill="#000000" font-family="sans-serif" font-size="11" font-weight="bold" lengthAdjust="spacing" textLength="92" x="1117" y="521.562">[mod == True]</text><line style="stroke:#181818;stroke-width:1.0;" x1="1103" x2="1150" y1="542.6172" y2="542.6172"/><line style="stroke:#181818;stroke-width:1.0;" x1="1150" x2="1150" y1="542.6172" y2="555.6172"/><line style="stroke:#181818;stroke-width:1.0;" x1="1109" x2="1150" y1="555.6172" y2="555.6172"/><polygon fill="#181818" points="1119,551.6172,1109,555.6172,1119,559.6172,1115,555.6172" style="stroke:#181818;stroke-width:1.0;"/><text fill="#000000" font-family="sans-serif" font-size="13" lengthAdjust="spacing" textLength="93" x="1115" y="537.5513">rendreVisible()</text><!--SRC=[VP9DRjim48NNqIcctjX1x1v0i0Na1rrLG90qxQQ0GLCJcur4gZEacoFq6DqLFeTlqfDqICcMcwPT41A7RxvvC-JungWrgQP1g11ul_iQq6g4oMsjh7yetv-FisnyxUoZMGTItZWBUgF88qXQkp6Y7sSR8ycFplcLUyxuoTXM2HCOEzgjw8qshH2lb7vQamkskdQr8_YqCHvVIRdKtj7hucnyiz_fMlLkAcHGscCW1lHfsmxr62RLVlTb_mFmsR1F4RML3zHgQ5UQLB4WZ9RB1szgmoe2byiHA8R0IDa9CwgQl3JMt3lDlQXvgI3Exv1HXLv0_1S3ynAR5U41WIyL8N_5ZGpW_dXFQeiQQep9p6gDF4qxJVjT6W_7QpsTnrI6fD-EizWKp0feuE82ScWTUwIoWqnQnb2vSWhMDNUI4k7dcMiz74-e3ul4WWrr3R- -_qoRhJo630Gyq8aNX7g39AiRoeG4212HSczl5WaXWJvFOl-nrTc9Oj4bTH8tE5Jf1dl8wCIncBpplXYas1dnh6WmvOSX_MJiVpBE113xmivVuwe5iYzTXTIfZx9P4P9a5GLNjPCBEnmI-a2s-u-cLh1Om3jLCwPOYcj20S9eFhVuhIW-s_XUEEz7SNmnp4DAPstqBs7lMFuMytc7dwH95iMHaKRagkZd0uN13dI4rFc1H6Whme-6pQe-j2OkP6LoyXi0]--></g></svg>