<?xml version="1.0" encoding="us-ascii" standalone="no"?><svg xmlns="http://www.w3.org/2000/svg" xmlns:xlink="http://www.w3.org/1999/xlink" contentStyleType="text/css" height="960px" preserveAspectRatio="none" style="width:692px;height:960px;background:#FFFFFF;" version="1.1" viewBox="0 0 692 960" width="692px" zoomAndPan="magnify"><defs/><g><!--cluster MiniSocs--><g id="cluster_MiniSocs"><rect fill="none" height="947" rx="2.5" ry="2.5" style="stroke:#181818;stroke-width:1.0;" width="268" x="418" y="7"/><text fill="#000000" font-family="sans-serif" font-size="14" font-weight="bold" lengthAdjust="spacing" textLength="69" x="517.5" y="21.9951">MiniSocs</text></g><g id="elem_ajouter un utilisateur"><ellipse cx="552.1728" cy="62.8346" fill="#FFFFFF" rx="89.6728" ry="20.3346" style="stroke:#000000;stroke-width:0.5;"/><text fill="#000000" font-family="sans-serif" font-size="14" lengthAdjust="spacing" textLength="141" x="481.6728" y="65.6812">ajouter un utilisateur</text></g><g id="elem_lister les utilisateur"><ellipse cx="551.995" cy="138.199" fill="#FFFFFF" rx="83.995" ry="19.199" style="stroke:#000000;stroke-width:0.5;"/><text fill="#000000" font-family="sans-serif" font-size="14" lengthAdjust="spacing" textLength="128" x="487.7335" y="141.1356">lister les utilisateur</text></g><g id="elem_bloquer un compte utilisateur"><ellipse cx="551.9616" cy="217.9923" fill="#FFFFFF" rx="117.9616" ry="25.9923" style="stroke:#000000;stroke-width:0.5;"/><text fill="#000000" font-family="sans-serif" font-size="14" lengthAdjust="spacing" textLength="203" x="450.4616" y="220.839">bloquer un compte utilisateur</text></g><g id="elem_retirer un compte utilisateur"><ellipse cx="551.8717" cy="303.8743" fill="#FFFFFF" rx="112.3717" ry="24.8743" style="stroke:#000000;stroke-width:0.5;"/><text fill="#000000" font-family="sans-serif" font-size="14" lengthAdjust="spacing" textLength="191" x="456.3717" y="306.721">retirer un compte utilisateur</text></g><g id="elem_d&#233;sactiver son compte"><ellipse cx="551.7599" cy="695.852" fill="#FFFFFF" rx="97.2599" ry="21.852" style="stroke:#000000;stroke-width:0.5;"/><text fill="#000000" font-family="sans-serif" font-size="14" lengthAdjust="spacing" textLength="158" x="472.7599" y="698.6987">d&#233;sactiver son compte</text></g><g id="elem_cr&#233;er un r&#233;seau social"><ellipse cx="552.0118" cy="774.9024" fill="#FFFFFF" rx="95.0118" ry="21.4024" style="stroke:#000000;stroke-width:0.5;"/><text fill="#000000" font-family="sans-serif" font-size="14" lengthAdjust="spacing" textLength="153" x="475.5118" y="777.749">cr&#233;er un r&#233;seau social</text></g><g id="elem_configurer profil"><ellipse cx="551.8844" cy="848.9769" fill="#FFFFFF" rx="75.3844" ry="17.4769" style="stroke:#000000;stroke-width:0.5;"/><text fill="#000000" font-family="sans-serif" font-size="14" lengthAdjust="spacing" textLength="107" x="495.3844" y="852.7244">configurer profil</text></g><g id="elem_Poster message"><ellipse cx="551.7532" cy="919.9506" fill="#FFFFFF" rx="77.7532" ry="17.9506" style="stroke:#000000;stroke-width:0.5;"/><text fill="#000000" font-family="sans-serif" font-size="14" lengthAdjust="spacing" textLength="113" x="492.6994" y="923.5809">Poster message</text></g><g id="elem_ajouter membre"><ellipse cx="552.0612" cy="382.2122" fill="#FFFFFF" rx="76.5612" ry="17.7122" style="stroke:#000000;stroke-width:0.5;"/><text fill="#000000" font-family="sans-serif" font-size="14" lengthAdjust="spacing" textLength="110" x="494.0612" y="385.9598">ajouter membre</text></g><g id="elem_promouvoir un mod&#233;rateur"><ellipse cx="552.0935" cy="458.8187" fill="#FFFFFF" rx="109.5935" ry="24.3187" style="stroke:#000000;stroke-width:0.5;"/><text fill="#000000" font-family="sans-serif" font-size="14" lengthAdjust="spacing" textLength="185" x="459.5935" y="461.6654">promouvoir un mod&#233;rateur</text></g><g id="elem_Approuver messages post&#233;s"><ellipse cx="552.0937" cy="544.1187" fill="#FFFFFF" rx="116.0937" ry="25.6187" style="stroke:#000000;stroke-width:0.5;"/><text fill="#000000" font-family="sans-serif" font-size="14" lengthAdjust="spacing" textLength="199" x="452.5937" y="546.9654">Approuver messages post&#233;s</text></g><g id="elem_Fermer r&#233;seau"><ellipse cx="552.0678" cy="622.0136" fill="#FFFFFF" rx="73.0678" ry="17.0136" style="stroke:#000000;stroke-width:0.5;"/><text fill="#000000" font-family="sans-serif" font-size="14" lengthAdjust="spacing" textLength="101" x="498.5678" y="625.7611">Fermer r&#233;seau</text></g><!--entity Administrateur--><g id="elem_Administrateur"><ellipse cx="324" cy="268.5" fill="#F1F1F1" rx="8" ry="8" style="stroke:#181818;stroke-width:0.5;"/><path d="M324,276.5 L324,303.5 M311,284.5 L337,284.5 M324,303.5 L311,318.5 M324,303.5 L337,318.5 " fill="none" style="stroke:#181818;stroke-width:0.5;"/><text fill="#000000" font-family="sans-serif" font-size="14" lengthAdjust="spacing" textLength="100" x="274" y="332.9951">Administrateur</text></g><!--entity Utilisateur--><g id="elem_Utilisateur"><ellipse cx="40" cy="704.5" fill="#F1F1F1" rx="8" ry="8" style="stroke:#181818;stroke-width:0.5;"/><path d="M40,712.5 L40,739.5 M27,720.5 L53,720.5 M40,739.5 L27,754.5 M40,739.5 L53,754.5 " fill="none" style="stroke:#181818;stroke-width:0.5;"/><text fill="#000000" font-family="sans-serif" font-size="14" lengthAdjust="spacing" textLength="68" x="6" y="768.9951">Utilisateur</text></g><!--entity Mod?rateur--><g id="elem_Mod&#233;rateur"><ellipse cx="174" cy="471.5" fill="#F1F1F1" rx="8" ry="8" style="stroke:#181818;stroke-width:0.5;"/><path d="M174,479.5 L174,506.5 M161,487.5 L187,487.5 M174,506.5 L161,521.5 M174,506.5 L187,521.5 " fill="none" style="stroke:#181818;stroke-width:0.5;"/><text fill="#000000" font-family="sans-serif" font-size="14" lengthAdjust="spacing" textLength="80" x="134" y="535.9951">Mod&#233;rateur</text></g><!--reverse link Utilisateur to Administrateur--><g id="link_Utilisateur_Administrateur"><path d="M48.7265,677.9139 C57.8365,619.3439 78.85,523.81 134,445 C170.58,392.72 231.25,350.28 273.96,324.68 " fill="none" id="Utilisateur-backto-Administrateur" style="stroke:#000000;stroke-width:1.0;"/><polygon fill="none" points="45.96,695.7,54.6552,678.836,42.7978,676.9917,45.96,695.7" style="stroke:#000000;stroke-width:1.0;"/></g><!--reverse link Mod?rateur to Administrateur--><g id="link_Mod&#233;rateur_Administrateur"><path d="M213.3061,448.3221 C233.1361,421.0521 249.9,398.03 274,365 C280.8,355.69 288.13,345.65 295,336.25 " fill="none" id="Mod&#233;rateur-backto-Administrateur" style="stroke:#000000;stroke-width:1.0;"/><polygon fill="none" points="202.72,462.88,218.1588,451.8508,208.4535,444.7933,202.72,462.88" style="stroke:#000000;stroke-width:1.0;"/></g><!--reverse link Utilisateur to Mod?rateur--><g id="link_Utilisateur_Mod&#233;rateur"><path d="M71.5219,680.1283 C96.0219,636.8783 126.83,582.49 151.34,539.24 " fill="none" id="Utilisateur-backto-Mod&#233;rateur" style="stroke:#000000;stroke-width:1.0;"/><polygon fill="none" points="62.65,695.79,76.7425,683.0856,66.3014,677.171,62.65,695.79" style="stroke:#000000;stroke-width:1.0;"/></g><!--link Administrateur to ajouter un utilisateur--><g id="link_Administrateur_ajouter un utilisateur"><path d="M331.2,259.88 C340.47,215.28 362.26,142.32 410,101 C426.97,86.32 449.05,77.25 470.69,71.66 " fill="none" id="Administrateur-ajouter un utilisateur" style="stroke:#000000;stroke-width:1.0;"/></g><!--link Administrateur to lister les utilisateur--><g id="link_Administrateur_lister les utilisateur"><path d="M341.88,259.93 C356.15,232.07 379.19,195.53 410,174 C429.57,160.32 453.91,151.84 476.82,146.58 " fill="none" id="Administrateur-lister les utilisateur" style="stroke:#000000;stroke-width:1.0;"/></g><!--link Administrateur to bloquer un compte utilisateur--><g id="link_Administrateur_bloquer un compte utilisateur"><path d="M374.05,275.51 C385.73,270.47 398.22,265.34 410,261 C431.97,252.9 456.25,245.09 478.38,238.41 " fill="none" id="Administrateur-bloquer un compte utilisateur" style="stroke:#000000;stroke-width:1.0;"/></g><!--link Administrateur to retirer un compte utilisateur--><g id="link_Administrateur_retirer un compte utilisateur"><path d="M374.04,299.3 C393.51,299.82 416.76,300.44 439.91,301.05 " fill="none" id="Administrateur-retirer un compte utilisateur" style="stroke:#000000;stroke-width:1.0;"/></g><!--link Utilisateur to d?sactiver son compte--><g id="link_Utilisateur_d&#233;sactiver son compte"><path d="M74.07,731.54 C150.88,725.81 343.61,711.45 459.19,702.84 " fill="none" id="Utilisateur-d&#233;sactiver son compte" style="stroke:#000000;stroke-width:1.0;"/></g><!--link Utilisateur to cr?er un r?seau social--><g id="link_Utilisateur_cr&#233;er un r&#233;seau social"><path d="M74.07,736.66 C151.55,742.89 346.94,758.6 462.16,767.86 " fill="none" id="Utilisateur-cr&#233;er un r&#233;seau social" style="stroke:#000000;stroke-width:1.0;"/></g><!--link Utilisateur to configurer profil--><g id="link_Utilisateur_configurer profil"><path d="M74.12,741.94 C91.86,746.17 114.11,751.43 134,756 C263.76,785.82 416.57,819.54 496.31,837.04 " fill="none" id="Utilisateur-configurer profil" style="stroke:#000000;stroke-width:1.0;"/></g><!--link Utilisateur to Poster message--><g id="link_Utilisateur_Poster message"><path d="M74.15,751.88 C91.71,761.06 113.78,772.15 134,781 C253.94,833.5 285.06,844.86 410,884 C438.09,892.8 469.81,901.04 496.05,907.42 " fill="none" id="Utilisateur-Poster message" style="stroke:#000000;stroke-width:1.0;"/></g><!--link Mod?rateur to ajouter membre--><g id="link_Mod&#233;rateur_ajouter membre"><path d="M214.14,483.31 C232.19,475.43 254.01,466.31 274,459 C349.95,431.24 440.7,407.78 497.1,394.29 " fill="none" id="Mod&#233;rateur-ajouter membre" style="stroke:#000000;stroke-width:1.0;"/></g><!--link Mod?rateur to promouvoir un mod?rateur--><g id="link_Mod&#233;rateur_promouvoir un mod&#233;rateur"><path d="M214.17,496.62 C270.41,490.34 375.84,478.57 453.82,469.86 " fill="none" id="Mod&#233;rateur-promouvoir un mod&#233;rateur" style="stroke:#000000;stroke-width:1.0;"/></g><!--link Mod?rateur to Approuver messages post?s--><g id="link_Mod&#233;rateur_Approuver messages post&#233;s"><path d="M214.17,505.48 C269.19,511.77 371.28,523.45 448.7,532.3 " fill="none" id="Mod&#233;rateur-Approuver messages post&#233;s" style="stroke:#000000;stroke-width:1.0;"/></g><!--link Mod?rateur to Fermer r?seau--><g id="link_Mod&#233;rateur_Fermer r&#233;seau"><path d="M214.06,516.76 C260.34,535.09 340,565.57 410,587 C438.94,595.86 471.73,604.1 498.4,610.36 " fill="none" id="Mod&#233;rateur-Fermer r&#233;seau" style="stroke:#000000;stroke-width:1.0;"/></g><!--SRC=[XPD1RXin34NtEWMHpSIBNC0m0jW9sYvg840GTCr8z5YD94ueoKNHzZxrENonSkn9xIGUnAi1-JxvIShDhSTMC4O2Hs0nWsjgyS5dB9uJNDu5JELX-NNI6DFSS5hvjieXPzSeXK3btTe_LsfCVlAfGoq7DPCM8_Xb5cYVMk6Qt0q75lYszeNCWiMH72ABe8YPY_2FLm5RMDwePpFuKYCckBw6pnoS-MDCe5M1mY2-NHTmNiZszjJkxMvh0mvk7ML0MwXAXcbZiAyESnTzyhaeeuaX-33CVumisUss0tEIXTdlgwktDKxOi_bt-jFYPpo_lud3b24Gv9-vxFv6tNi_CgPMOnTBxNNFDb_ewgUlMqz1krtYTww516g2UhGoEGzhkcU3-lWOVWoihs1VsNBiz6byh14gUh1npScsfg2_NgFhodeNlr5TvXVX26nbjptKruzCM5LYFOOnV7ZXAkc4LtwCk-FzOYBbZ6tV- -IA_w6NLKUAZp86QPl8TSD-Rp8UYH5-tgcYRexDCtHgHeSR4NmYYKeFuq-CqJ_DFm00]--></g></svg>