<?xml version="1.0" encoding="us-ascii" standalone="no"?><svg xmlns="http://www.w3.org/2000/svg" xmlns:xlink="http://www.w3.org/1999/xlink" contentStyleType="text/css" height="521px" preserveAspectRatio="none" style="width:1062px;height:521px;background:#FFFFFF;" version="1.1" viewBox="0 0 1062 521" width="1062px" zoomAndPan="magnify"><defs/><g><rect fill="#FFFFFF" height="393.1172" style="stroke:#181818;stroke-width:1.0;" width="10" x="262" y="112.4297"/><rect fill="#FFFFFF" height="331.8516" style="stroke:#181818;stroke-width:1.0;" width="10" x="267" y="173.6953"/><rect fill="#FFFFFF" height="289.7188" style="stroke:#181818;stroke-width:1.0;" width="10" x="272" y="215.8281"/><rect fill="#FFFFFF" height="231.4531" style="stroke:#181818;stroke-width:1.0;" width="10" x="514" y="274.0938"/><rect fill="#FFFFFF" height="168.1875" style="stroke:#181818;stroke-width:1.0;" width="10" x="719.5" y="337.3594"/><rect fill="#FFFFFF" height="110.5938" style="stroke:#181818;stroke-width:1.0;" width="10" x="821" y="394.9531"/><rect fill="#FFFFFF" height="39" style="stroke:#181818;stroke-width:1.0;" width="10" x="826" y="450.5469"/><rect fill="none" height="234.7188" style="stroke:#000000;stroke-width:1.5;" width="845.5" x="210.5" y="235.8281"/><rect fill="none" height="174.4531" style="stroke:#000000;stroke-width:1.5;" width="585" x="461" y="289.0938"/><line style="stroke:#181818;stroke-width:0.5;stroke-dasharray:5.0,5.0;" x1="42" x2="42" y1="81.2969" y2="514.5469"/><line style="stroke:#181818;stroke-width:0.5;stroke-dasharray:5.0,5.0;" x1="266.5" x2="266.5" y1="81.2969" y2="514.5469"/><line style="stroke:#181818;stroke-width:0.5;stroke-dasharray:5.0,5.0;" x1="519" x2="519" y1="81.2969" y2="514.5469"/><line style="stroke:#181818;stroke-width:0.5;stroke-dasharray:5.0,5.0;" x1="724" x2="724" y1="345.0234" y2="514.5469"/><line style="stroke:#181818;stroke-width:0.5;stroke-dasharray:5.0,5.0;" x1="826" x2="826" y1="402.6172" y2="514.5469"/><text fill="#000000" font-family="sans-serif" font-size="14" lengthAdjust="spacing" text-decoration="underline" textLength="68" x="5" y="77.9951">Utilisateur</text><ellipse cx="42" cy="13.5" fill="#FFFFFF" rx="8" ry="8" style="stroke:#181818;stroke-width:0.5;"/><path d="M42,21.5 L42,48.5 M29,29.5 L55,29.5 M42,48.5 L29,63.5 M42,48.5 L55,63.5 " fill="none" style="stroke:#181818;stroke-width:0.5;"/><rect fill="#FFFFFF" height="30.2969" rx="2.5" ry="2.5" style="stroke:#181818;stroke-width:0.5;" width="93" x="220.5" y="50"/><text fill="#000000" font-family="sans-serif" font-size="14" lengthAdjust="spacing" text-decoration="underline" textLength="79" x="227.5" y="69.9951">m:MiniSocs</text><rect fill="#FFFFFF" height="30.2969" rx="2.5" ry="2.5" style="stroke:#181818;stroke-width:0.5;" width="96" x="471" y="50"/><text fill="#000000" font-family="sans-serif" font-size="14" lengthAdjust="spacing" text-decoration="underline" textLength="82" x="478" y="69.9951">u:Utilisateur</text><rect fill="#FFFFFF" height="393.1172" style="stroke:#181818;stroke-width:1.0;" width="10" x="262" y="112.4297"/><rect fill="#FFFFFF" height="331.8516" style="stroke:#181818;stroke-width:1.0;" width="10" x="267" y="173.6953"/><rect fill="#FFFFFF" height="289.7188" style="stroke:#181818;stroke-width:1.0;" width="10" x="272" y="215.8281"/><rect fill="#FFFFFF" height="231.4531" style="stroke:#181818;stroke-width:1.0;" width="10" x="514" y="274.0938"/><rect fill="#FFFFFF" height="168.1875" style="stroke:#181818;stroke-width:1.0;" width="10" x="719.5" y="337.3594"/><rect fill="#FFFFFF" height="110.5938" style="stroke:#181818;stroke-width:1.0;" width="10" x="821" y="394.9531"/><rect fill="#FFFFFF" height="39" style="stroke:#181818;stroke-width:1.0;" width="10" x="826" y="450.5469"/><polygon fill="#181818" points="250,108.4297,260,112.4297,250,116.4297,254,112.4297" style="stroke:#181818;stroke-width:1.0;"/><line style="stroke:#181818;stroke-width:1.0;" x1="42" x2="256" y1="112.4297" y2="112.4297"/><text fill="#000000" font-family="sans-serif" font-size="13" lengthAdjust="spacing" textLength="201" x="49" y="107.3638">creerReseau(nomRS, pseudoU)</text><line style="stroke:#181818;stroke-width:1.0;" x1="272" x2="319" y1="160.6953" y2="160.6953"/><line style="stroke:#181818;stroke-width:1.0;" x1="319" x2="319" y1="160.6953" y2="173.6953"/><line style="stroke:#181818;stroke-width:1.0;" x1="278" x2="319" y1="173.6953" y2="173.6953"/><polygon fill="#181818" points="288,169.6953,278,173.6953,288,177.6953,284,173.6953" style="stroke:#181818;stroke-width:1.0;"/><text fill="#000000" font-family="sans-serif" font-size="13" lengthAdjust="spacing" textLength="194" x="284" y="155.6294">e1=rechercheReseau(nomRS)</text><line style="stroke:#181818;stroke-width:1.0;" x1="277" x2="324" y1="202.8281" y2="202.8281"/><line style="stroke:#181818;stroke-width:1.0;" x1="324" x2="324" y1="202.8281" y2="215.8281"/><line style="stroke:#181818;stroke-width:1.0;" x1="283" x2="324" y1="215.8281" y2="215.8281"/><polygon fill="#181818" points="293,211.8281,283,215.8281,293,219.8281,289,215.8281" style="stroke:#181818;stroke-width:1.0;"/><text fill="#000000" font-family="sans-serif" font-size="13" lengthAdjust="spacing" textLength="223" x="289" y="197.7622">e2=rechercheUtilisateur(pseudoU)</text><path d="M210.5,235.8281 L280.5,235.8281 L280.5,242.9609 L270.5,252.9609 L210.5,252.9609 L210.5,235.8281 " fill="#EEEEEE" style="stroke:#000000;stroke-width:1.5;"/><rect fill="none" height="234.7188" style="stroke:#000000;stroke-width:1.5;" width="845.5" x="210.5" y="235.8281"/><text fill="#000000" font-family="sans-serif" font-size="13" font-weight="bold" lengthAdjust="spacing" textLength="25" x="225.5" y="248.895">opt</text><text fill="#000000" font-family="sans-serif" font-size="11" font-weight="bold" lengthAdjust="spacing" textLength="166" x="295.5" y="248.0386">[e1 != null &amp;&amp; e2 == null]</text><polygon fill="#181818" points="502,270.0938,512,274.0938,502,278.0938,506,274.0938" style="stroke:#181818;stroke-width:1.0;"/><line style="stroke:#181818;stroke-width:1.0;" x1="282" x2="508" y1="274.0938" y2="274.0938"/><text fill="#000000" font-family="sans-serif" font-size="13" lengthAdjust="spacing" textLength="175" x="289" y="269.0278">b=utilisateurBloque(nomU)</text><path d="M461,289.0938 L531,289.0938 L531,296.2266 L521,306.2266 L461,306.2266 L461,289.0938 " fill="#EEEEEE" style="stroke:#000000;stroke-width:1.5;"/><rect fill="none" height="174.4531" style="stroke:#000000;stroke-width:1.5;" width="585" x="461" y="289.0938"/><text fill="#000000" font-family="sans-serif" font-size="13" font-weight="bold" lengthAdjust="spacing" textLength="25" x="476" y="302.1606">opt</text><text fill="#000000" font-family="sans-serif" font-size="11" font-weight="bold" lengthAdjust="spacing" textLength="71" x="546" y="301.3042">[b==False]</text><polygon fill="#181818" points="670,323.3594,680,327.3594,670,331.3594,674,327.3594" style="stroke:#181818;stroke-width:1.0;"/><line style="stroke:#181818;stroke-width:1.0;" x1="524" x2="676" y1="327.3594" y2="327.3594"/><text fill="#000000" font-family="sans-serif" font-size="13" lengthAdjust="spacing" textLength="134" x="531" y="322.2935">rs=&#171;create(nomRs)&#187;</text><rect fill="#FFFFFF" height="46.5938" rx="2.5" ry="2.5" style="stroke:#181818;stroke-width:0.5;" width="85" x="682" y="306.2266"/><text fill="#000000" font-family="sans-serif" font-size="14" lengthAdjust="spacing" textLength="47" x="701" y="326.2217">&#171;new&#187;</text><text fill="#000000" font-family="sans-serif" font-size="14" lengthAdjust="spacing" text-decoration="underline" textLength="71" x="689" y="342.5186">rs:Reseau</text><polygon fill="#181818" points="765,380.9531,775,384.9531,765,388.9531,769,384.9531" style="stroke:#181818;stroke-width:1.0;"/><line style="stroke:#181818;stroke-width:1.0;" x1="524" x2="771" y1="384.9531" y2="384.9531"/><text fill="#000000" font-family="sans-serif" font-size="13" lengthAdjust="spacing" textLength="208" x="531" y="379.8872">me=&#171;ajouteMembre(pseudoU)&#187;</text><rect fill="#FFFFFF" height="46.5938" rx="2.5" ry="2.5" style="stroke:#181818;stroke-width:0.5;" width="98" x="777" y="363.8203"/><text fill="#000000" font-family="sans-serif" font-size="14" lengthAdjust="spacing" textLength="47" x="802.5" y="383.8154">&#171;new&#187;</text><text fill="#000000" font-family="sans-serif" font-size="14" lengthAdjust="spacing" text-decoration="underline" textLength="84" x="784" y="400.1123">me:Membre</text><line style="stroke:#181818;stroke-width:1.0;" x1="831" x2="878" y1="437.5469" y2="437.5469"/><line style="stroke:#181818;stroke-width:1.0;" x1="878" x2="878" y1="437.5469" y2="450.5469"/><line style="stroke:#181818;stroke-width:1.0;" x1="837" x2="878" y1="450.5469" y2="450.5469"/><polygon fill="#181818" points="847,446.5469,837,450.5469,847,454.5469,843,450.5469" style="stroke:#181818;stroke-width:1.0;"/><text fill="#000000" font-family="sans-serif" font-size="13" lengthAdjust="spacing" textLength="191" x="843" y="432.481">donnerDroit(nomRs,pseudoU)</text><line style="stroke:#181818;stroke-width:1.0;stroke-dasharray:2.0,2.0;" x1="836" x2="878" y1="488.5469" y2="488.5469"/><line style="stroke:#181818;stroke-width:1.0;stroke-dasharray:2.0,2.0;" x1="878" x2="878" y1="488.5469" y2="501.5469"/><line style="stroke:#181818;stroke-width:1.0;stroke-dasharray:2.0,2.0;" x1="831" x2="878" y1="501.5469" y2="501.5469"/><polygon fill="#181818" points="841,497.5469,831,501.5469,841,505.5469,837,501.5469" style="stroke:#181818;stroke-width:1.0;"/><!--SRC=[RP91Rjim44NNvYccNaGsuXP8bePbe8dHLGq4COnk2WWqDR6PYAJA8TCSeSVehl0vV9EUf4FHiPtK0YY1qf___WnLpBHSUsaCGer0k-sFY5OX3EuQQSDo_dLO257SElkWrz7Be9q5jP4-871Pkz6iByH6S_63Ss7bNWGzQTjAzWJ2x7R7UgrqouutKZsjlOksldMDy_1jemEUAVciWlFdnQAOxRQgaViqDH985J1w0WpTjZto20RrRlku-mtueYbqR-GpFw2HntQvIPc0qA-gPT2D9faCgweFaY0IUd7YcLHcFDTMBvoYlSYyLyJn6ISElyXGv1YeeE6u1eda6cdKxPJVRRlEA9t8QIiZxazzAaJA0n-dOE3o4iPSWEZlaL36WNNcVZ62bZ3MRZaKhWtGlUEx1HkR1lx- -jDjdjEPNLoyQiyBHCyaKCV1gzAZsg3dTOeRikWa3buVPISJ61mozL8el88FPUPn1ho6Ckz4Bvl5RBOguz7Yfd4ykGHDBftDgYo_o8PG05-z7e-2bT2VJ2p-d4w_swhoDCvXzqVWQQ-D2TC_9yXeJ-LaaWsxFcaudRx5lE4O7C_Hh3o-_W_uZlE_87CCCaS-kXWmVpzCwi1ZQPhllg1srgAVUQT33ZOwZ1O0RItIyXYYj_y0]--></g></svg>