<?xml version="1.0" encoding="us-ascii" standalone="no"?><svg xmlns="http://www.w3.org/2000/svg" xmlns:xlink="http://www.w3.org/1999/xlink" contentStyleType="text/css" height="515px" preserveAspectRatio="none" style="width:1109px;height:515px;background:#FFFFFF;" version="1.1" viewBox="0 0 1109 515" width="1109px" zoomAndPan="magnify"><defs/><g><rect fill="#FFFFFF" height="387.1172" style="stroke:#181818;stroke-width:1.0;" width="10" x="332" y="112.4297"/><rect fill="#FFFFFF" height="325.8516" style="stroke:#181818;stroke-width:1.0;" width="10" x="337" y="173.6953"/><rect fill="#FFFFFF" height="283.7188" style="stroke:#181818;stroke-width:1.0;" width="10" x="342" y="215.8281"/><rect fill="#FFFFFF" height="14" style="stroke:#181818;stroke-width:1.0;" width="10" x="576" y="274.0938"/><rect fill="#FFFFFF" height="148.1875" style="stroke:#181818;stroke-width:1.0;" width="10" x="676.5" y="351.3594"/><rect fill="#FFFFFF" height="90.5938" style="stroke:#181818;stroke-width:1.0;" width="10" x="963.5" y="408.9531"/><rect fill="#FFFFFF" height="35" style="stroke:#181818;stroke-width:1.0;" width="10" x="968.5" y="464.5469"/><rect fill="none" height="364.1172" style="stroke:#000000;stroke-width:1.5;" width="843" x="260.5" y="127.4297"/><rect fill="none" height="248.7188" style="stroke:#000000;stroke-width:1.5;" width="823" x="270.5" y="235.8281"/><rect fill="none" height="174.4531" style="stroke:#000000;stroke-width:1.5;" width="803" x="280.5" y="303.0938"/><line style="stroke:#181818;stroke-width:0.5;stroke-dasharray:5.0,5.0;" x1="42" x2="42" y1="81.2969" y2="508.5469"/><line style="stroke:#181818;stroke-width:0.5;stroke-dasharray:5.0,5.0;" x1="336.5" x2="336.5" y1="81.2969" y2="508.5469"/><line style="stroke:#181818;stroke-width:0.5;stroke-dasharray:5.0,5.0;" x1="581" x2="581" y1="81.2969" y2="508.5469"/><line style="stroke:#181818;stroke-width:0.5;stroke-dasharray:5.0,5.0;" x1="681" x2="681" y1="359.0234" y2="508.5469"/><line style="stroke:#181818;stroke-width:0.5;stroke-dasharray:5.0,5.0;" x1="968.5" x2="968.5" y1="416.6172" y2="508.5469"/><text fill="#000000" font-family="sans-serif" font-size="14" lengthAdjust="spacing" text-decoration="underline" textLength="68" x="5" y="77.9951">Utilisateur</text><ellipse cx="42" cy="13.5" fill="#FFFFFF" rx="8" ry="8" style="stroke:#181818;stroke-width:0.5;"/><path d="M42,21.5 L42,48.5 M29,29.5 L55,29.5 M42,48.5 L29,63.5 M42,48.5 L55,63.5 " fill="none" style="stroke:#181818;stroke-width:0.5;"/><rect fill="#FFFFFF" height="30.2969" rx="2.5" ry="2.5" style="stroke:#181818;stroke-width:0.5;" width="93" x="290.5" y="50"/><text fill="#000000" font-family="sans-serif" font-size="14" lengthAdjust="spacing" text-decoration="underline" textLength="79" x="297.5" y="69.9951">m:MiniSocs</text><rect fill="#FFFFFF" height="30.2969" rx="2.5" ry="2.5" style="stroke:#181818;stroke-width:0.5;" width="96" x="533" y="50"/><text fill="#000000" font-family="sans-serif" font-size="14" lengthAdjust="spacing" text-decoration="underline" textLength="82" x="540" y="69.9951">u:Utilisateur</text><rect fill="#FFFFFF" height="387.1172" style="stroke:#181818;stroke-width:1.0;" width="10" x="332" y="112.4297"/><rect fill="#FFFFFF" height="325.8516" style="stroke:#181818;stroke-width:1.0;" width="10" x="337" y="173.6953"/><rect fill="#FFFFFF" height="283.7188" style="stroke:#181818;stroke-width:1.0;" width="10" x="342" y="215.8281"/><rect fill="#FFFFFF" height="14" style="stroke:#181818;stroke-width:1.0;" width="10" x="576" y="274.0938"/><rect fill="#FFFFFF" height="148.1875" style="stroke:#181818;stroke-width:1.0;" width="10" x="676.5" y="351.3594"/><rect fill="#FFFFFF" height="90.5938" style="stroke:#181818;stroke-width:1.0;" width="10" x="963.5" y="408.9531"/><rect fill="#FFFFFF" height="35" style="stroke:#181818;stroke-width:1.0;" width="10" x="968.5" y="464.5469"/><polygon fill="#181818" points="320,108.4297,330,112.4297,320,116.4297,324,112.4297" style="stroke:#181818;stroke-width:1.0;"/><line style="stroke:#181818;stroke-width:1.0;" x1="42" x2="326" y1="112.4297" y2="112.4297"/><text fill="#000000" font-family="sans-serif" font-size="13" lengthAdjust="spacing" textLength="271" x="49" y="107.3638">creerReseau(nomRS, pseudoU, pseudo M)</text><path d="M260.5,127.4297 L330.5,127.4297 L330.5,134.5625 L320.5,144.5625 L260.5,144.5625 L260.5,127.4297 " fill="#EEEEEE" style="stroke:#000000;stroke-width:1.5;"/><rect fill="none" height="364.1172" style="stroke:#000000;stroke-width:1.5;" width="843" x="260.5" y="127.4297"/><text fill="#000000" font-family="sans-serif" font-size="13" font-weight="bold" lengthAdjust="spacing" textLength="25" x="275.5" y="140.4966">opt</text><text fill="#000000" font-family="sans-serif" font-size="11" font-weight="bold" lengthAdjust="spacing" textLength="194" x="345.5" y="139.6401">[nomRS != null &amp;&amp; nomRS !='']</text><line style="stroke:#181818;stroke-width:1.0;" x1="342" x2="389" y1="160.6953" y2="160.6953"/><line style="stroke:#181818;stroke-width:1.0;" x1="389" x2="389" y1="160.6953" y2="173.6953"/><line style="stroke:#181818;stroke-width:1.0;" x1="348" x2="389" y1="173.6953" y2="173.6953"/><polygon fill="#181818" points="358,169.6953,348,173.6953,358,177.6953,354,173.6953" style="stroke:#181818;stroke-width:1.0;"/><text fill="#000000" font-family="sans-serif" font-size="13" lengthAdjust="spacing" textLength="194" x="354" y="155.6294">e1=rechercheReseau(nomRS)</text><line style="stroke:#181818;stroke-width:1.0;" x1="347" x2="394" y1="202.8281" y2="202.8281"/><line style="stroke:#181818;stroke-width:1.0;" x1="394" x2="394" y1="202.8281" y2="215.8281"/><line style="stroke:#181818;stroke-width:1.0;" x1="353" x2="394" y1="215.8281" y2="215.8281"/><polygon fill="#181818" points="363,211.8281,353,215.8281,363,219.8281,359,215.8281" style="stroke:#181818;stroke-width:1.0;"/><text fill="#000000" font-family="sans-serif" font-size="13" lengthAdjust="spacing" textLength="215" x="359" y="197.7622">u=rechercheUtilisateur(pseudoU)</text><path d="M270.5,235.8281 L340.5,235.8281 L340.5,242.9609 L330.5,252.9609 L270.5,252.9609 L270.5,235.8281 " fill="#EEEEEE" style="stroke:#000000;stroke-width:1.5;"/><rect fill="none" height="248.7188" style="stroke:#000000;stroke-width:1.5;" width="823" x="270.5" y="235.8281"/><text fill="#000000" font-family="sans-serif" font-size="13" font-weight="bold" lengthAdjust="spacing" textLength="25" x="285.5" y="248.895">opt</text><text fill="#000000" font-family="sans-serif" font-size="11" font-weight="bold" lengthAdjust="spacing" textLength="158" x="355.5" y="248.0386">[e1 == null &amp;&amp; u != null]</text><polygon fill="#181818" points="564,270.0938,574,274.0938,564,278.0938,568,274.0938" style="stroke:#181818;stroke-width:1.0;"/><line style="stroke:#181818;stroke-width:1.0;" x1="352" x2="570" y1="274.0938" y2="274.0938"/><text fill="#000000" font-family="sans-serif" font-size="13" lengthAdjust="spacing" textLength="93" x="359" y="269.0278">b=estBloque()</text><polygon fill="#181818" points="363,284.0938,353,288.0938,363,292.0938,359,288.0938" style="stroke:#181818;stroke-width:1.0;"/><line style="stroke:#181818;stroke-width:1.0;stroke-dasharray:2.0,2.0;" x1="357" x2="580" y1="288.0938" y2="288.0938"/><path d="M280.5,303.0938 L350.5,303.0938 L350.5,310.2266 L340.5,320.2266 L280.5,320.2266 L280.5,303.0938 " fill="#EEEEEE" style="stroke:#000000;stroke-width:1.5;"/><rect fill="none" height="174.4531" style="stroke:#000000;stroke-width:1.5;" width="803" x="280.5" y="303.0938"/><text fill="#000000" font-family="sans-serif" font-size="13" font-weight="bold" lengthAdjust="spacing" textLength="25" x="295.5" y="316.1606">opt</text><text fill="#000000" font-family="sans-serif" font-size="11" font-weight="bold" lengthAdjust="spacing" textLength="71" x="365.5" y="315.3042">[b==False]</text><polygon fill="#181818" points="627,337.3594,637,341.3594,627,345.3594,631,341.3594" style="stroke:#181818;stroke-width:1.0;"/><line style="stroke:#181818;stroke-width:1.0;" x1="352" x2="633" y1="341.3594" y2="341.3594"/><text fill="#000000" font-family="sans-serif" font-size="13" lengthAdjust="spacing" textLength="200" x="359" y="336.2935">rs=&#171;create(nomRs, pseudoM)&#187;</text><rect fill="#FFFFFF" height="46.5938" rx="2.5" ry="2.5" style="stroke:#181818;stroke-width:0.5;" width="85" x="639" y="320.2266"/><text fill="#000000" font-family="sans-serif" font-size="14" lengthAdjust="spacing" textLength="47" x="658" y="340.2217">&#171;new&#187;</text><text fill="#000000" font-family="sans-serif" font-size="14" lengthAdjust="spacing" text-decoration="underline" textLength="71" x="646" y="356.5186">rs:Reseau</text><polygon fill="#181818" points="907.5,394.9531,917.5,398.9531,907.5,402.9531,911.5,398.9531" style="stroke:#181818;stroke-width:1.0;"/><line style="stroke:#181818;stroke-width:1.0;" x1="686.5" x2="913.5" y1="398.9531" y2="398.9531"/><text fill="#000000" font-family="sans-serif" font-size="13" lengthAdjust="spacing" textLength="209" x="693.5" y="393.8872">me=&#171;ajouteMembre(pseudoM)&#187;</text><rect fill="#FFFFFF" height="46.5938" rx="2.5" ry="2.5" style="stroke:#181818;stroke-width:0.5;" width="98" x="919.5" y="377.8203"/><text fill="#000000" font-family="sans-serif" font-size="14" lengthAdjust="spacing" textLength="47" x="945" y="397.8154">&#171;new&#187;</text><text fill="#000000" font-family="sans-serif" font-size="14" lengthAdjust="spacing" text-decoration="underline" textLength="84" x="926.5" y="414.1123">me:Membre</text><line style="stroke:#181818;stroke-width:1.0;" x1="973.5" x2="1020.5" y1="451.5469" y2="451.5469"/><line style="stroke:#181818;stroke-width:1.0;" x1="1020.5" x2="1020.5" y1="451.5469" y2="464.5469"/><line style="stroke:#181818;stroke-width:1.0;" x1="979.5" x2="1020.5" y1="464.5469" y2="464.5469"/><polygon fill="#181818" points="989.5,460.5469,979.5,464.5469,989.5,468.5469,985.5,464.5469" style="stroke:#181818;stroke-width:1.0;"/><text fill="#000000" font-family="sans-serif" font-size="13" lengthAdjust="spacing" textLength="86" x="985.5" y="446.481">donnerDroit()</text><!--SRC=[RP5DRjim48NNvYacNaGouXR8Lh04D36oge4WXj5D0O6c9ZOJaLGvP9lZTEjp-68T_SLEOm649FBD- -ODawMMEo-DGQWGw7Zu5T4gXFInbZPiLjzdYH39lRFFUXUz3DfPK7lf0mANDNlD-aJiDHS_EnUsxatGgxQDP4yWxDqUMQ-LRjZnJghNdNVHLlUkTXv-x7N02oNVL73-ibWao-D1rNBefa82gG96Ju2X-srEF8AqEXvUZdy1tpI5RaV-vXVKyXINGyeM2DEot0HTQvAjOLbEGH94GY_EF5kLoLRQwhLJD8ZC_ugONN3YvjSz5BaDL51pkmQ9v0vftlqfVpnqoQYzaVCeSywdlYQYxGU-563WvWOoBa3qJqWeOsgTULhFeI6CbTkC7x2Q2TS4w4xXAWSRwngkhzytaaHCJElO6U9jxb7jqVCwzvsnw8mRJwgpfEd0Pd6Bn5l8JxmumiMajugzrJP72dUruy6aN3Zn6AAt_D5QRFFyGTQ40lYPJ3WkWs2wM5ZyKnG_RLbwole-Xp5x6hGTOtf9q7CzvOj5RzX5f75YgrbHVEHz01hCLcYs7iVB7vjZuvxuMT4J3J9HlhWOi3zFFm5PsWvvAAYSjUYNtkd0em50Mubn_GC0]--></g></svg>