<?xml version="1.0" encoding="us-ascii" standalone="no"?><svg xmlns="http://www.w3.org/2000/svg" xmlns:xlink="http://www.w3.org/1999/xlink" contentStyleType="text/css" height="593px" preserveAspectRatio="none" style="width:1377px;height:593px;background:#FFFFFF;" version="1.1" viewBox="0 0 1377 593" width="1377px" zoomAndPan="magnify"><defs/><g><rect fill="#FFFFFF" height="465.1875" style="stroke:#181818;stroke-width:1.0;" width="10" x="290" y="112.4297"/><rect fill="#FFFFFF" height="403.9219" style="stroke:#181818;stroke-width:1.0;" width="10" x="295" y="173.6953"/><rect fill="#FFFFFF" height="345.6563" style="stroke:#181818;stroke-width:1.0;" width="10" x="553" y="231.9609"/><rect fill="#FFFFFF" height="292.3906" style="stroke:#181818;stroke-width:1.0;" width="10" x="830" y="285.2266"/><rect fill="#FFFFFF" height="255.2578" style="stroke:#181818;stroke-width:1.0;" width="10" x="835" y="322.3594"/><rect fill="#FFFFFF" height="191.9922" style="stroke:#181818;stroke-width:1.0;" width="10" x="840" y="385.625"/><rect fill="#FFFFFF" height="221.125" style="stroke:#181818;stroke-width:1.0;" width="10" x="1055" y="356.4922"/><rect fill="#FFFFFF" height="128.7266" style="stroke:#181818;stroke-width:1.0;" width="10" x="1169" y="448.8906"/><rect fill="#FFFFFF" height="49" style="stroke:#181818;stroke-width:1.0;" width="10" x="1174" y="528.6172"/><rect fill="none" height="442.1875" style="stroke:#000000;stroke-width:1.5;" width="1142.5" x="228.5" y="127.4297"/><rect fill="none" height="368.9219" style="stroke:#000000;stroke-width:1.5;" width="1122.5" x="238.5" y="193.6953"/><rect fill="none" height="308.6563" style="stroke:#000000;stroke-width:1.5;" width="845.5" x="505.5" y="246.9609"/><rect fill="none" height="147.9922" style="stroke:#000000;stroke-width:1.5;" width="565" x="776" y="400.625"/><rect fill="none" height="59.2656" style="stroke:#000000;stroke-width:1.5;" width="223" x="1108" y="482.3516"/><line style="stroke:#181818;stroke-width:0.5;stroke-dasharray:5.0,5.0;" x1="42" x2="42" y1="81.2969" y2="586.6172"/><line style="stroke:#181818;stroke-width:0.5;stroke-dasharray:5.0,5.0;" x1="294.5" x2="294.5" y1="81.2969" y2="586.6172"/><line style="stroke:#181818;stroke-width:0.5;stroke-dasharray:5.0,5.0;" x1="557.5" x2="557.5" y1="81.2969" y2="586.6172"/><line style="stroke:#181818;stroke-width:0.5;stroke-dasharray:5.0,5.0;" x1="835" x2="835" y1="81.2969" y2="586.6172"/><line style="stroke:#181818;stroke-width:0.5;stroke-dasharray:5.0,5.0;" x1="1060" x2="1060" y1="81.2969" y2="586.6172"/><line style="stroke:#181818;stroke-width:0.5;stroke-dasharray:5.0,5.0;" x1="1174" x2="1174" y1="456.5547" y2="586.6172"/><text fill="#000000" font-family="sans-serif" font-size="14" lengthAdjust="spacing" text-decoration="underline" textLength="68" x="5" y="77.9951">Utilisateur</text><ellipse cx="42" cy="13.5" fill="#FFFFFF" rx="8" ry="8" style="stroke:#181818;stroke-width:0.5;"/><path d="M42,21.5 L42,48.5 M29,29.5 L55,29.5 M42,48.5 L29,63.5 M42,48.5 L55,63.5 " fill="none" style="stroke:#181818;stroke-width:0.5;"/><rect fill="#FFFFFF" height="30.2969" rx="2.5" ry="2.5" style="stroke:#181818;stroke-width:0.5;" width="93" x="248.5" y="50"/><text fill="#000000" font-family="sans-serif" font-size="14" lengthAdjust="spacing" text-decoration="underline" textLength="79" x="255.5" y="69.9951">m:MiniSocs</text><rect fill="#FFFFFF" height="30.2969" rx="2.5" ry="2.5" style="stroke:#181818;stroke-width:0.5;" width="85" x="515.5" y="50"/><text fill="#000000" font-family="sans-serif" font-size="14" lengthAdjust="spacing" text-decoration="underline" textLength="71" x="522.5" y="69.9951">rs:Reseau</text><rect fill="#FFFFFF" height="30.2969" rx="2.5" ry="2.5" style="stroke:#181818;stroke-width:0.5;" width="98" x="786" y="50"/><text fill="#000000" font-family="sans-serif" font-size="14" lengthAdjust="spacing" text-decoration="underline" textLength="84" x="793" y="69.9951">me:Membre</text><rect fill="#FFFFFF" height="30.2969" rx="2.5" ry="2.5" style="stroke:#181818;stroke-width:0.5;" width="96" x="1012" y="50"/><text fill="#000000" font-family="sans-serif" font-size="14" lengthAdjust="spacing" text-decoration="underline" textLength="82" x="1019" y="69.9951">u:Utilisateur</text><rect fill="#FFFFFF" height="465.1875" style="stroke:#181818;stroke-width:1.0;" width="10" x="290" y="112.4297"/><rect fill="#FFFFFF" height="403.9219" style="stroke:#181818;stroke-width:1.0;" width="10" x="295" y="173.6953"/><rect fill="#FFFFFF" height="345.6563" style="stroke:#181818;stroke-width:1.0;" width="10" x="553" y="231.9609"/><rect fill="#FFFFFF" height="292.3906" style="stroke:#181818;stroke-width:1.0;" width="10" x="830" y="285.2266"/><rect fill="#FFFFFF" height="255.2578" style="stroke:#181818;stroke-width:1.0;" width="10" x="835" y="322.3594"/><rect fill="#FFFFFF" height="191.9922" style="stroke:#181818;stroke-width:1.0;" width="10" x="840" y="385.625"/><rect fill="#FFFFFF" height="221.125" style="stroke:#181818;stroke-width:1.0;" width="10" x="1055" y="356.4922"/><rect fill="#FFFFFF" height="128.7266" style="stroke:#181818;stroke-width:1.0;" width="10" x="1169" y="448.8906"/><rect fill="#FFFFFF" height="49" style="stroke:#181818;stroke-width:1.0;" width="10" x="1174" y="528.6172"/><polygon fill="#181818" points="278,108.4297,288,112.4297,278,116.4297,282,112.4297" style="stroke:#181818;stroke-width:1.0;"/><line style="stroke:#181818;stroke-width:1.0;" x1="42" x2="284" y1="112.4297" y2="112.4297"/><text fill="#000000" font-family="sans-serif" font-size="13" lengthAdjust="spacing" textLength="229" x="49" y="107.3638">posterMessage(pseudoM, rs, mess)</text><path d="M228.5,127.4297 L298.5,127.4297 L298.5,134.5625 L288.5,144.5625 L228.5,144.5625 L228.5,127.4297 " fill="#EEEEEE" style="stroke:#000000;stroke-width:1.5;"/><rect fill="none" height="442.1875" style="stroke:#000000;stroke-width:1.5;" width="1142.5" x="228.5" y="127.4297"/><text fill="#000000" font-family="sans-serif" font-size="13" font-weight="bold" lengthAdjust="spacing" textLength="25" x="243.5" y="140.4966">opt</text><text fill="#000000" font-family="sans-serif" font-size="11" font-weight="bold" lengthAdjust="spacing" textLength="228" x="313.5" y="139.6401">[mess respecte RCF822 &#8743; non vide]</text><line style="stroke:#181818;stroke-width:1.0;" x1="300" x2="347" y1="160.6953" y2="160.6953"/><line style="stroke:#181818;stroke-width:1.0;" x1="347" x2="347" y1="160.6953" y2="173.6953"/><line style="stroke:#181818;stroke-width:1.0;" x1="306" x2="347" y1="173.6953" y2="173.6953"/><polygon fill="#181818" points="316,169.6953,306,173.6953,316,177.6953,312,173.6953" style="stroke:#181818;stroke-width:1.0;"/><text fill="#000000" font-family="sans-serif" font-size="13" lengthAdjust="spacing" textLength="157" x="312" y="155.6294">e1=existenceReseau(rs)</text><path d="M238.5,193.6953 L308.5,193.6953 L308.5,200.8281 L298.5,210.8281 L238.5,210.8281 L238.5,193.6953 " fill="#EEEEEE" style="stroke:#000000;stroke-width:1.5;"/><rect fill="none" height="368.9219" style="stroke:#000000;stroke-width:1.5;" width="1122.5" x="238.5" y="193.6953"/><text fill="#000000" font-family="sans-serif" font-size="13" font-weight="bold" lengthAdjust="spacing" textLength="25" x="253.5" y="206.7622">opt</text><text fill="#000000" font-family="sans-serif" font-size="11" font-weight="bold" lengthAdjust="spacing" textLength="72" x="323.5" y="205.9058">[e1 != null]</text><polygon fill="#181818" points="541,227.9609,551,231.9609,541,235.9609,545,231.9609" style="stroke:#181818;stroke-width:1.0;"/><line style="stroke:#181818;stroke-width:1.0;" x1="305" x2="547" y1="231.9609" y2="231.9609"/><text fill="#000000" font-family="sans-serif" font-size="13" lengthAdjust="spacing" textLength="229" x="312" y="226.895">e2=existenceMembre(pseudoM, rs)</text><path d="M505.5,246.9609 L575.5,246.9609 L575.5,254.0938 L565.5,264.0938 L505.5,264.0938 L505.5,246.9609 " fill="#EEEEEE" style="stroke:#000000;stroke-width:1.5;"/><rect fill="none" height="308.6563" style="stroke:#000000;stroke-width:1.5;" width="845.5" x="505.5" y="246.9609"/><text fill="#000000" font-family="sans-serif" font-size="13" font-weight="bold" lengthAdjust="spacing" textLength="25" x="520.5" y="260.0278">opt</text><text fill="#000000" font-family="sans-serif" font-size="11" font-weight="bold" lengthAdjust="spacing" textLength="81" x="590.5" y="259.1714">[e2 == True]</text><polygon fill="#181818" points="818,281.2266,828,285.2266,818,289.2266,822,285.2266" style="stroke:#181818;stroke-width:1.0;"/><line style="stroke:#181818;stroke-width:1.0;" x1="563" x2="824" y1="285.2266" y2="285.2266"/><text fill="#000000" font-family="sans-serif" font-size="13" lengthAdjust="spacing" textLength="248" x="570" y="280.1606">pseudoU=pseudoUtilisateur(pseudoM)</text><line style="stroke:#181818;stroke-width:1.0;" x1="840" x2="887" y1="309.3594" y2="309.3594"/><line style="stroke:#181818;stroke-width:1.0;" x1="887" x2="887" y1="309.3594" y2="322.3594"/><line style="stroke:#181818;stroke-width:1.0;" x1="846" x2="887" y1="322.3594" y2="322.3594"/><polygon fill="#181818" points="856,318.3594,846,322.3594,856,326.3594,852,322.3594" style="stroke:#181818;stroke-width:1.0;"/><text fill="#000000" font-family="sans-serif" font-size="13" lengthAdjust="spacing" textLength="201" x="852" y="304.2935">mod=estModerateur(pseudoU)</text><polygon fill="#181818" points="1043,352.4922,1053,356.4922,1043,360.4922,1047,356.4922" style="stroke:#181818;stroke-width:1.0;"/><line style="stroke:#181818;stroke-width:1.0;" x1="845" x2="1049" y1="356.4922" y2="356.4922"/><text fill="#000000" font-family="sans-serif" font-size="13" lengthAdjust="spacing" textLength="158" x="852" y="351.4263">b1=estBloque(pseudoU)</text><polygon fill="#181818" points="861,381.625,851,385.625,861,389.625,857,385.625" style="stroke:#181818;stroke-width:1.0;"/><line style="stroke:#181818;stroke-width:1.0;stroke-dasharray:2.0,2.0;" x1="855" x2="1054" y1="385.625" y2="385.625"/><text fill="#000000" font-family="sans-serif" font-size="13" lengthAdjust="spacing" textLength="16" x="867" y="380.5591">b1</text><path d="M776,400.625 L846,400.625 L846,407.7578 L836,417.7578 L776,417.7578 L776,400.625 " fill="#EEEEEE" style="stroke:#000000;stroke-width:1.5;"/><rect fill="none" height="147.9922" style="stroke:#000000;stroke-width:1.5;" width="565" x="776" y="400.625"/><text fill="#000000" font-family="sans-serif" font-size="13" font-weight="bold" lengthAdjust="spacing" textLength="25" x="791" y="413.6919">opt</text><text fill="#000000" font-family="sans-serif" font-size="11" font-weight="bold" lengthAdjust="spacing" textLength="87" x="861" y="412.8354">[b1 == False]</text><polygon fill="#181818" points="1106,434.8906,1116,438.8906,1106,442.8906,1110,438.8906" style="stroke:#181818;stroke-width:1.0;"/><line style="stroke:#181818;stroke-width:1.0;" x1="850" x2="1112" y1="438.8906" y2="438.8906"/><text fill="#000000" font-family="sans-serif" font-size="13" lengthAdjust="spacing" textLength="148" x="857" y="433.8247">mess=&#171;create(mess)&#187;</text><rect fill="#FFFFFF" height="46.5938" rx="2.5" ry="2.5" style="stroke:#181818;stroke-width:0.5;" width="112" x="1118" y="417.7578"/><text fill="#000000" font-family="sans-serif" font-size="14" lengthAdjust="spacing" textLength="47" x="1150.5" y="437.7529">&#171;new&#187;</text><text fill="#000000" font-family="sans-serif" font-size="14" lengthAdjust="spacing" text-decoration="underline" textLength="98" x="1125" y="454.0498">mes:Message</text><path d="M1108,482.3516 L1178,482.3516 L1178,489.4844 L1168,499.4844 L1108,499.4844 L1108,482.3516 " fill="#EEEEEE" style="stroke:#000000;stroke-width:1.5;"/><rect fill="none" height="59.2656" style="stroke:#000000;stroke-width:1.5;" width="223" x="1108" y="482.3516"/><text fill="#000000" font-family="sans-serif" font-size="13" font-weight="bold" lengthAdjust="spacing" textLength="25" x="1123" y="495.4185">opt</text><text fill="#000000" font-family="sans-serif" font-size="11" font-weight="bold" lengthAdjust="spacing" textLength="92" x="1193" y="494.562">[mod == True]</text><line style="stroke:#181818;stroke-width:1.0;" x1="1179" x2="1226" y1="515.6172" y2="515.6172"/><line style="stroke:#181818;stroke-width:1.0;" x1="1226" x2="1226" y1="515.6172" y2="528.6172"/><line style="stroke:#181818;stroke-width:1.0;" x1="1185" x2="1226" y1="528.6172" y2="528.6172"/><polygon fill="#181818" points="1195,524.6172,1185,528.6172,1195,532.6172,1191,528.6172" style="stroke:#181818;stroke-width:1.0;"/><text fill="#000000" font-family="sans-serif" font-size="13" lengthAdjust="spacing" textLength="128" x="1191" y="510.5513">rendreVisible(mess)</text><!--SRC=[TPB1Zjem48RFzLDCkGIqR2KuLH51whBQKoEjTajxgOISP1RSJUpKuz1zX3v6RnNFmPliatJi14WfFO1Zw_y_p_pZw5R9jPLLXL0Wq7xtlK6T8mplIwdTClquYeI85aO_gNLZfLD6GxwHrY6mhTueraTYezZyP8pBp8kWPwLhoKmWR6dth5Uvgfbu8_FdjJMDBXQcD1Q-R9J32vOFkJFsibX4j_jTNigkcW89PEwmiGJemhO-tKSmBFQxR_jVW2-AN3YHMrwWbATskKdfBuJ1QhLqgbGaFN2r6e0aQ0Yjw36zgefJfTMZoQaJLUSAI_434igc4rZwXu5nYbLcyO30SqKJNwY60tWypabkCOSIlPb8hf76OPVR_Ix4Gtwi_Jp675B-BXA-ARYUGmLNLn13RSYXJLl8i2Pi2fEEkUXn88-4CBKBds2HQkJ0uM5nztuwXTUVlq7p8BRy20Gmy4J5IH9YzwMsOGmjim0y32VmDW7Tb2KVT3wUOMkSdenjHlsQHi4G65D84lXa6mn7u07-Ukow2fvbqgsdB0-qKMTZGyzMcI91SgafqFRbox_bJQlE9bvyKneUoRcmWUiUDvjqnxxqRE9BlvCb7Me77XloVJ2OpJJ-cC-_Qlz8AEx6SdmcH4T7MydWVxgk7_vAPhEMFWppdC-FY31OKvm5sSAfY_D0igWBYvyLgQpiIE8DdmLJk_A_tmY_uzyV]--></g></svg>